<?xml version="1.0" encoding="UTF-8"?>
<svg id="uuid-f93cafb7-043e-4cea-8c3a-c2b17d02a537" data-name="Layer 2" xmlns="http://www.w3.org/2000/svg" xmlns:xlink="http://www.w3.org/1999/xlink" viewBox="0 0 429 426">
  <defs>
    <style>
      .uuid-784320f4-3e7c-4146-9383-31e5a3c8d50c {
        clip-path: url(#uuid-13ed8677-b05e-4a80-81f4-8fc30a0e7724);
      }

      .uuid-944f1fbc-fce5-4311-a715-dc61556a0979 {
        fill: none;
      }

      .uuid-944f1fbc-fce5-4311-a715-dc61556a0979, .uuid-444514d1-48b4-4a2b-a03c-3062e4e4a665, .uuid-a328d17f-93df-499d-9ff8-459541b600f3, .uuid-49bda1cd-f608-4139-a948-0e29a4056f7d, .uuid-5ae5e02f-be91-4032-b388-c0c27afb279f, .uuid-1cc64485-776d-4597-8622-3e7b60735e52, .uuid-62d0eca0-b4d7-482e-8c96-e492f1fd4bda, .uuid-45a6b2d2-e362-4d50-95b9-267995edc340, .uuid-caca8781-7ce8-4c90-9086-84328f9e7edb, .uuid-7236872a-3e4e-460c-9d4e-8a2a92252b88, .uuid-191979dd-8e67-4496-bcae-b885a01fdd49 {
        stroke-width: 0px;
      }

      .uuid-444514d1-48b4-4a2b-a03c-3062e4e4a665 {
        fill: #f2e6cf;
      }

      .uuid-a328d17f-93df-499d-9ff8-459541b600f3 {
        fill: #f4ca7f;
      }

      .uuid-49bda1cd-f608-4139-a948-0e29a4056f7d {
        fill: #f1e7cd;
      }

      .uuid-5ae5e02f-be91-4032-b388-c0c27afb279f {
        fill: #bbd1b4;
      }

      .uuid-1cc64485-776d-4597-8622-3e7b60735e52 {
        fill: #628079;
      }

      .uuid-62d0eca0-b4d7-482e-8c96-e492f1fd4bda {
        fill: #f5f3e7;
      }

      .uuid-45a6b2d2-e362-4d50-95b9-267995edc340 {
        fill: #97b9a0;
      }

      .uuid-caca8781-7ce8-4c90-9086-84328f9e7edb {
        fill: #76978b;
      }

      .uuid-7236872a-3e4e-460c-9d4e-8a2a92252b88 {
        fill: #eecc9a;
      }

      .uuid-191979dd-8e67-4496-bcae-b885a01fdd49 {
        fill: #13211b;
      }
    </style>
    <clipPath id="uuid-13ed8677-b05e-4a80-81f4-8fc30a0e7724">
      <rect class="uuid-944f1fbc-fce5-4311-a715-dc61556a0979" y="0" width="429" height="426" rx="97.34" ry="97.34"/>
    </clipPath>
  </defs>
  <g id="uuid-8dcbfea6-5bb2-4262-bdce-6281d21c7116" data-name="Layer 7">
    <g class="uuid-784320f4-3e7c-4146-9383-31e5a3c8d50c">
      <rect class="uuid-444514d1-48b4-4a2b-a03c-3062e4e4a665" x="1" y="-1" width="429" height="426" rx="97.34" ry="97.34"/>
      <ellipse class="uuid-a328d17f-93df-499d-9ff8-459541b600f3" cx="317.83" cy="91.76" rx="153.5" ry="151.5"/>
      <circle class="uuid-62d0eca0-b4d7-482e-8c96-e492f1fd4bda" cx="311.83" cy="80.76" r="54.5"/>
      <path class="uuid-5ae5e02f-be91-4032-b388-c0c27afb279f" d="M-84.67,242.26s5.96,9,16.7,7,10.74-4,10.74-4c0,0,16.7-18,31.01-16s29.82-17,29.82-17c0,0,31.01-47,40.56-77s33.4-73,71.57-71,53.68,33,53.68,33c0,0,17.89,25,25.05,26s20.28,1,27.44-7c7.16-8,25.05-12,33.4-9s25.05,12,32.21,43,33.4,30,33.4,30c0,0,20.28-12,32.21,7s20.28,30,25.05,30,3.58,6,21.47,2,19.09-12,29.82-12l2.89,178H-84.67v-143Z"/>
      <path class="uuid-45a6b2d2-e362-4d50-95b9-267995edc340" d="M106.33,274.26s5.83,9,16.33,7,10.5-4,10.5-4c0,0,16.33-18,30.32-16s29.15-17,29.15-17c0,0,30.32-47,39.65-77s32.65-73,69.97-71,52.48,33,52.48,33c0,0,17.49,25,24.49,26s19.82,1,26.82-7c7-8,24.49-12,32.65-9s24.49,12,31.49,43c7,31,32.65,30,32.65,30,0,0,19.82-12,31.49,7,11.66,19,19.82,30,24.49,30s3.5,6,20.99,2,18.66-12,29.15-12l2.83,178H106.33v-143Z"/>
      <path class="uuid-caca8781-7ce8-4c90-9086-84328f9e7edb" d="M-43.96,262.26S-22.77,238.26-.46,242.26s23.43,9,23.43,9c0,0,12.27,12,15.62,12s20.08,0,26.77-3,21.19,0,21.19,0c0,0,12.27,6,13.39,9s25.66,10,31.23,9,35.7-8,65.82-40c30.12-32,107.09-28,107.09-28,0,0,85.89,4,116.01,22,30.12,18,60.24,18,60.24,18l-46.85,71-488.59-5,11.16-54Z"/>
      <path class="uuid-1cc64485-776d-4597-8622-3e7b60735e52" d="M436.06,203.26s-30.89,0-32.52,10.11c-1.61,10-19.14-33.46-79.39,38.16-1.31,1.56-3.16,2.56-5.18,2.84-7.55,1.02-26.59,2.02-40.62-10.67-14.78-13.37-38.44,10.55-46.21,19.25-1.88,2.11-3.97,4.02-6.25,5.7-6.42,4.72-19.24,13.96-20.7,15.49-5.86,6.13-1.63,26.28-27.64,22.24s-71.54-60.66-102.43-54.59c-30.89,6.07-69.91,26.28-74.79,14.15s-13.01,230.49-13.01,230.49l289.4,169.83,201.6-196.12-42.27-266.88Z"/>
      <path class="uuid-7236872a-3e4e-460c-9d4e-8a2a92252b88" d="M190.33,309.26s35,1,38,6c2.5,4.16-2.62,7.63-4.41,8.67-.61.36-1.11.89-1.34,1.56-.75,2.2.75,6.52,24.75,5.77,32-1,69,16,69,16,0,0,26,12,9,27,0,0-64,31-73,46,0,0-18,29,74,45l-96,62s-77-98-41-124,70-35,71-48-40-16-40-16c0,0-44-1-37-12,5.18-8.14,11.45-9.16,14.36-9.14,1.47,0,2.82-.9,3.31-2.28.78-2.22-.22-5.34-10.67-6.57Z"/>
      <path class="uuid-49bda1cd-f608-4139-a948-0e29a4056f7d" d="M.57,219.89s21.94-7.31,26.32-5.85,13.16-7.31,13.16-7.31c0,0,4.39-7.31,21.94-1.46s20.47-2.92,20.47-2.92c0,0,20.47-7.31,32.17-4.39s23.4,5.85,20.47,10.24-23.4,32.17-23.4,32.17l-67.27,43.87-46.14,8.92L.57,219.89Z"/>
      <path class="uuid-191979dd-8e67-4496-bcae-b885a01fdd49" d="M-.9,284.24s19.01,5.85,38.02-24.86c0,0,35.1-5.85,39.49-10.24s20.47-21.94,20.47-21.94c0,0,35.1-8.77,38.02-21.94,0,0,8.77,2.92-10.24,29.25,0,0,19.01,1.46,1.46,16.09s-10.24,27.79-10.24,27.79c0,0,11.7-2.92,10.24,10.24s-4.39,17.55-4.39,17.55c0,0,4.39,4.39,0,13.16s-21.94,27.79-26.32,29.25-10.24,27.79-10.24,27.79c0,0,8.77,0,7.31,4.39s4.39,10.24-11.7,48.26c0,0,7.31-4.39,4.39,1.46l-4.39,8.77-90.67-1.46L-.9,284.24Z"/>
      <path class="uuid-191979dd-8e67-4496-bcae-b885a01fdd49" d="M361.33,99.26s-18-16-18-21,2-7,2-7c0,0,15,21,18,22l9,3s15-2,18-1,10-6,10-6l-3,7s-6,1-7,2-15,5-17,4-3,1-3,1l3,4s-14,4-16-5l4-3Z"/>
      <path class="uuid-191979dd-8e67-4496-bcae-b885a01fdd49" d="M294.44,119.1s-12.59-11.19-12.59-14.69,1.4-4.9,1.4-4.9c0,0,10.49,14.69,12.59,15.39l6.3,2.1s10.49-1.4,12.59-.7,7-4.2,7-4.2l-2.1,4.9s-4.2.7-4.9,1.4-10.49,3.5-11.89,2.8-2.1.7-2.1.7l2.1,2.8s-9.79,2.8-11.19-3.5l2.8-2.1Z"/>
    </g>
    <path class="uuid-191979dd-8e67-4496-bcae-b885a01fdd49" d="M33.33,152.26v-2l4-4v-8s-6-8-11,1c0,0,1,10,3,11v3l-5,3h-4s-5,1-4,4,1,10,1,10l-1,6v2l4,6h3v18l-2,7-2,14v4l2,1,5-3-2-1v-7l3-5,3-5v26s1,2,5,1,5-2,5-2c0,0,3-2-4-2s2-28,2-28l5-23-2-23,9-12v-4l-13-2v2l7,2-5,6s-6,2-6,4Z"/>
  </g>
</svg>