<?xml version="1.0" encoding="UTF-8"?>
<svg id="uuid-ad849c91-f875-4d45-8456-a07166cfeba2" data-name="Layer 2" xmlns="http://www.w3.org/2000/svg" xmlns:xlink="http://www.w3.org/1999/xlink" viewBox="0 0 429 426">
  <defs>
    <style>
      .uuid-54f5bd98-a891-4b7a-85af-9261eb94ce22, .uuid-9ba2f301-b695-4b4b-bd20-5e12585a5519, .uuid-03a47e9d-4591-4ba9-b67f-8628cddcf714, .uuid-1a5001e1-bd66-4cf6-a91c-7c7519a59126, .uuid-9ea49e2e-d361-4131-a9e1-7d4c44729b65, .uuid-ff69b956-2ac2-40a9-9a78-9c0ed519d173 {
        fill: none;
      }

      .uuid-54f5bd98-a891-4b7a-85af-9261eb94ce22, .uuid-9ba2f301-b695-4b4b-bd20-5e12585a5519, .uuid-1a5001e1-bd66-4cf6-a91c-7c7519a59126, .uuid-9ea49e2e-d361-4131-a9e1-7d4c44729b65, .uuid-8723c47c-7248-413c-a66e-47157f12c7ae, .uuid-fa5d9c23-c33f-46af-8bc9-86fe73621cd8, .uuid-ff69b956-2ac2-40a9-9a78-9c0ed519d173 {
        stroke-miterlimit: 10;
      }

      .uuid-54f5bd98-a891-4b7a-85af-9261eb94ce22, .uuid-9ea49e2e-d361-4131-a9e1-7d4c44729b65, .uuid-fa5d9c23-c33f-46af-8bc9-86fe73621cd8 {
        stroke: #fff;
      }

      .uuid-54f5bd98-a891-4b7a-85af-9261eb94ce22, .uuid-fa5d9c23-c33f-46af-8bc9-86fe73621cd8, .uuid-ff69b956-2ac2-40a9-9a78-9c0ed519d173 {
        stroke-width: 2px;
      }

      .uuid-a75975f1-39f3-4267-b913-a55ab1e6e7a5 {
        fill: #3a3245;
      }

      .uuid-a75975f1-39f3-4267-b913-a55ab1e6e7a5, .uuid-03a47e9d-4591-4ba9-b67f-8628cddcf714, .uuid-99e46c0b-6577-4d56-a404-9dc792263c43, .uuid-b377cd7e-15e6-48f9-bebf-c770a2ecae60, .uuid-c8e5a1bd-7585-4fd1-9ca4-52d811b67ddb, .uuid-2832d8ac-2acb-4330-9305-1fb8edd9627a, .uuid-e543a691-a441-44ac-bb77-6f905fecf58d, .uuid-c8fe7d48-07de-4d9e-b819-4a1fc6fd9251, .uuid-f5087072-2209-4291-80ab-fbc555a019f9, .uuid-bbf0e154-484d-499e-8033-7e68af4f30ae, .uuid-51c2927d-b41a-49f4-af91-4011bc64d34f, .uuid-352a9112-97c3-4655-a8d0-a82971f08b18 {
        stroke-width: 0px;
      }

      .uuid-9ba2f301-b695-4b4b-bd20-5e12585a5519 {
        stroke-width: 4.87px;
      }

      .uuid-9ba2f301-b695-4b4b-bd20-5e12585a5519, .uuid-1a5001e1-bd66-4cf6-a91c-7c7519a59126, .uuid-8723c47c-7248-413c-a66e-47157f12c7ae {
        stroke: #000;
      }

      .uuid-1a5001e1-bd66-4cf6-a91c-7c7519a59126 {
        stroke-width: 3.8px;
      }

      .uuid-99e46c0b-6577-4d56-a404-9dc792263c43 {
        fill: #3d3534;
      }

      .uuid-b377cd7e-15e6-48f9-bebf-c770a2ecae60 {
        fill: #a285c3;
      }

      .uuid-25f84591-b189-4129-8c67-cf71c6fd6e7f {
        clip-path: url(#uuid-25af7066-a672-4f8d-820b-2cb2dcb0ebec);
      }

      .uuid-c8e5a1bd-7585-4fd1-9ca4-52d811b67ddb {
        fill: #66519a;
      }

      .uuid-2832d8ac-2acb-4330-9305-1fb8edd9627a {
        fill: #f4ca7f;
      }

      .uuid-e543a691-a441-44ac-bb77-6f905fecf58d {
        fill: #f4b046;
      }

      .uuid-c8fe7d48-07de-4d9e-b819-4a1fc6fd9251 {
        fill: #d7795c;
      }

      .uuid-8723c47c-7248-413c-a66e-47157f12c7ae {
        fill: #000;
        stroke-width: 4px;
      }

      .uuid-f5087072-2209-4291-80ab-fbc555a019f9 {
        fill: #f3bb53;
      }

      .uuid-fa5d9c23-c33f-46af-8bc9-86fe73621cd8 {
        fill: #050505;
      }

      .uuid-bbf0e154-484d-499e-8033-7e68af4f30ae {
        fill: #f5f3e7;
      }

      .uuid-51c2927d-b41a-49f4-af91-4011bc64d34f {
        fill: #886db2;
      }

      .uuid-352a9112-97c3-4655-a8d0-a82971f08b18 {
        fill: #987fc6;
      }

      .uuid-ff69b956-2ac2-40a9-9a78-9c0ed519d173 {
        stroke: #020005;
      }
    </style>
    <clipPath id="uuid-25af7066-a672-4f8d-820b-2cb2dcb0ebec">
      <rect class="uuid-03a47e9d-4591-4ba9-b67f-8628cddcf714" width="429" height="426" rx="97.34" ry="97.34"/>
    </clipPath>
  </defs>
  <g id="uuid-a635fbd3-b35b-4a7c-86e6-b0735530896d" data-name="Layer 5">
    <g class="uuid-25f84591-b189-4129-8c67-cf71c6fd6e7f">
      <rect class="uuid-e543a691-a441-44ac-bb77-6f905fecf58d" x="1" y="-1" width="429" height="426" rx="97.34" ry="97.34"/>
      <ellipse class="uuid-2832d8ac-2acb-4330-9305-1fb8edd9627a" cx="187.79" cy="129.08" rx="153.5" ry="151.5"/>
      <circle class="uuid-bbf0e154-484d-499e-8033-7e68af4f30ae" cx="166.47" cy="130.01" r="54.5"/>
      <path class="uuid-c8e5a1bd-7585-4fd1-9ca4-52d811b67ddb" d="M-3.03,286.51s5,9,14,7,9-4,9-4c0,0,14-18,26-16s25-17,25-17c0,0,26-47,34-77s28-73,60-71,45,33,45,33c0,0,15,25,21,26s17,1,23-7,21-12,28-9,21,12,27,43,28,30,28,30c0,0,17-12,27,7s17,30,21,30,3,6,18,2,16-12,25-12l2.42,178H-3.03v-143Z"/>
      <path class="uuid-51c2927d-b41a-49f4-af91-4011bc64d34f" d="M4.97,359.51s5,9,14,7,9-4,9-4c0,0,14-18,26-16s25-17,25-17c0,0,26-47,34-77s28-73,60-71,45,33,45,33c0,0,15,25,21,26s17,1,23-7,21-12,28-9,21,12,27,43,28,30,28,30c0,0,17-12,27,7s17,30,21,30,3,6,18,2,16-12,25-12l2.42,178H4.97v-143Z"/>
      <path class="uuid-b377cd7e-15e6-48f9-bebf-c770a2ecae60" d="M-4.03,383.51s19-24,39-20,21,9,21,9c0,0,11,12,14,12s18,0,24-3,19,0,19,0c0,0,11,6,12,9s23,10,28,9,32-8,59-40,96-28,96-28c0,0,77,4,104,22s54,18,54,18l-42,71-438-5,10-54Z"/>
      <path class="uuid-352a9112-97c3-4655-a8d0-a82971f08b18" d="M222.97,428.51s9-15,24-14,48,11,64,4c0,0,22-9,33-26s65-40,84-40,29,1,29,1l-.58,73-233.42,2Z"/>
      <g>
        <polyline class="uuid-8723c47c-7248-413c-a66e-47157f12c7ae" points="-1.03 329.51 6.81 329.53 431.97 330.51"/>
        <line class="uuid-8723c47c-7248-413c-a66e-47157f12c7ae" x1="6.81" y1="329.53" x2="7.97" y2="422.51"/>
        <line class="uuid-8723c47c-7248-413c-a66e-47157f12c7ae" x1="24.99" y1="329.05" x2="25.97" y2="423.51"/>
        <line class="uuid-8723c47c-7248-413c-a66e-47157f12c7ae" x1="42.42" y1="329.05" x2="41.97" y2="422.51"/>
        <line class="uuid-8723c47c-7248-413c-a66e-47157f12c7ae" x1="59.09" y1="329.05" x2="57.97" y2="422.51"/>
        <line class="uuid-8723c47c-7248-413c-a66e-47157f12c7ae" x1="76.52" y1="329.05" x2="76.97" y2="412.51"/>
        <line class="uuid-8723c47c-7248-413c-a66e-47157f12c7ae" x1="93.95" y1="329.05" x2="93.97" y2="399.51"/>
        <line class="uuid-8723c47c-7248-413c-a66e-47157f12c7ae" x1="111.38" y1="329.81" x2="111.97" y2="388.51"/>
        <line class="uuid-8723c47c-7248-413c-a66e-47157f12c7ae" x1="128.05" y1="329.81" x2="128.97" y2="379.51"/>
        <line class="uuid-8723c47c-7248-413c-a66e-47157f12c7ae" x1="146.24" y1="329.05" x2="145.97" y2="372.51"/>
        <line class="uuid-8723c47c-7248-413c-a66e-47157f12c7ae" x1="163.67" y1="329.81" x2="163.97" y2="366.51"/>
        <line class="uuid-8723c47c-7248-413c-a66e-47157f12c7ae" x1="181.09" y1="329.05" x2="180.97" y2="364.51"/>
        <line class="uuid-8723c47c-7248-413c-a66e-47157f12c7ae" x1="197.77" y1="329.81" x2="197.97" y2="361.51"/>
        <line class="uuid-8723c47c-7248-413c-a66e-47157f12c7ae" x1="215.19" y1="329.05" x2="214.97" y2="361.51"/>
        <line class="uuid-8723c47c-7248-413c-a66e-47157f12c7ae" x1="232.62" y1="329.05" x2="232.97" y2="361.51"/>
        <line class="uuid-8723c47c-7248-413c-a66e-47157f12c7ae" x1="249.29" y1="329.05" x2="249.97" y2="364.51"/>
        <line class="uuid-8723c47c-7248-413c-a66e-47157f12c7ae" x1="266.72" y1="330.56" x2="266.97" y2="367.51"/>
        <line class="uuid-8723c47c-7248-413c-a66e-47157f12c7ae" x1="284.15" y1="329.81" x2="284.97" y2="374.51"/>
        <line class="uuid-8723c47c-7248-413c-a66e-47157f12c7ae" x1="301.58" y1="329.81" x2="301.97" y2="380.51"/>
        <line class="uuid-8723c47c-7248-413c-a66e-47157f12c7ae" x1="318.25" y1="330.56" x2="319.97" y2="390.51"/>
        <line class="uuid-8723c47c-7248-413c-a66e-47157f12c7ae" x1="335.68" y1="329.81" x2="335.97" y2="400.51"/>
        <line class="uuid-8723c47c-7248-413c-a66e-47157f12c7ae" x1="353.11" y1="330.56" x2="353.97" y2="413.51"/>
        <line class="uuid-8723c47c-7248-413c-a66e-47157f12c7ae" x1="370.54" y1="329.05" x2="370.97" y2="423.51"/>
        <line class="uuid-8723c47c-7248-413c-a66e-47157f12c7ae" x1="387.97" y1="330.56" x2="388.97" y2="423.51"/>
        <line class="uuid-8723c47c-7248-413c-a66e-47157f12c7ae" x1="406.15" y1="329.81" x2="406.97" y2="423.51"/>
        <line class="uuid-8723c47c-7248-413c-a66e-47157f12c7ae" x1="422.82" y1="329.81" x2="423.97" y2="422.51"/>
        <ellipse class="uuid-9ba2f301-b695-4b4b-bd20-5e12585a5519" cx="215.47" cy="473.76" rx="166" ry="112.75"/>
      </g>
      <g>
        <polygon class="uuid-c8fe7d48-07de-4d9e-b819-4a1fc6fd9251" points="205.97 281.51 215.97 315.51 213.97 316.51 199.06 281.28 205.97 281.51"/>
        <ellipse class="uuid-1a5001e1-bd66-4cf6-a91c-7c7519a59126" cx="179.22" cy="309.26" rx="18.75" ry="19.25"/>
        <ellipse class="uuid-1a5001e1-bd66-4cf6-a91c-7c7519a59126" cx="245.77" cy="309.82" rx="18.75" ry="19.25"/>
        <polygon class="uuid-a75975f1-39f3-4267-b913-a55ab1e6e7a5" points="203.24 271.23 205.97 281.51 199.06 281.28 194.87 272.35 195.71 267.6 203.24 271.23"/>
        <polygon class="uuid-54f5bd98-a891-4b7a-85af-9261eb94ce22" points="179.22 309.26 197.97 278.51 229.97 278.51 229.97 287.51 211.97 309.51 179.22 309.26"/>
        <path class="uuid-54f5bd98-a891-4b7a-85af-9261eb94ce22" d="M245.77,309.82s-15.81-1.31-15.81-22.31"/>
        <polyline class="uuid-fa5d9c23-c33f-46af-8bc9-86fe73621cd8" points="207.97 303.51 195.97 275.51 193.91 267.51"/>
        <circle class="uuid-9ea49e2e-d361-4131-a9e1-7d4c44729b65" cx="210.97" cy="308.51" r="6"/>
        <path class="uuid-ff69b956-2ac2-40a9-9a78-9c0ed519d173" d="M240.97,280.51s11,2,9-6c0,0,1-5-5-5h-13l-2,4v5"/>
        <polyline class="uuid-ff69b956-2ac2-40a9-9a78-9c0ed519d173" points="189.97 267.51 193.91 267.51 201.97 267.51"/>
        <path class="uuid-f5087072-2209-4291-80ab-fbc555a019f9" d="M189.97,258.51l12,3,6-5,3,2h16v3h6v-11s-1-8-13-9-28,7-30,17Z"/>
        <path class="uuid-a75975f1-39f3-4267-b913-a55ab1e6e7a5" d="M192.92,259.51s-2.95,9,4.05,10,11,2,11,2l3-6-9-4-9.05-2Z"/>
        <path class="uuid-c8fe7d48-07de-4d9e-b819-4a1fc6fd9251" d="M228.44,261.7l.52,8.81s13,7,17,7c0,0,0,4,2,4s5-3,4-4-3-2-4-1-15-6-15-6l-.77-8.92-3.75.11Z"/>
        <path class="uuid-c8fe7d48-07de-4d9e-b819-4a1fc6fd9251" d="M233.97,250.51s3,6,6,6,4-3,4-3h2s0-3-1-4,1-2,1-2c0,0,0-4-6-4,0,0-5,2-6,7Z"/>
        <path class="uuid-99e46c0b-6577-4d56-a404-9dc792263c43" d="M239.97,251.51h1s0-3,1-3h3l2-1s-3-5-7-4-6,6-6,6l1,2s1-4,2-4,3,0,3,2v2Z"/>
        <path class="uuid-c8fe7d48-07de-4d9e-b819-4a1fc6fd9251" d="M210.65,266.18s13.31,4.34,16.31,8.34c0,0,1,3-4,6s-17,13-17,13h-1l-1-2s12-15,17-14c0,0,2-1,0-2s-13-4-13-4l2.69-5.34Z"/>
      </g>
    </g>
  </g>
</svg>