<?xml version="1.0" encoding="UTF-8"?>
<svg id="uuid-ae027546-385f-402e-b435-8e2b73e42ca3" data-name="Layer 2" xmlns="http://www.w3.org/2000/svg" xmlns:xlink="http://www.w3.org/1999/xlink" viewBox="0 0 429 426">
  <defs>
    <style>
      .uuid-056dc677-4bd0-424e-90d9-c0b895f081ca {
        fill: #121011;
      }

      .uuid-056dc677-4bd0-424e-90d9-c0b895f081ca, .uuid-b79651a0-10f1-4f3c-9ed8-80fb8e72e26d, .uuid-b0453965-f71a-4abc-ad35-6d96b12fc92a, .uuid-da65339a-2781-4833-8eee-d38bf783c97f, .uuid-b73ffed8-787d-473f-b815-22e159ad5fc7, .uuid-01ed3518-e0ae-403f-91f4-0990821bc770, .uuid-0d132311-fcf7-4315-a254-9a1b3b376bef, .uuid-d08dc8f9-c98d-4fc1-b039-7ec443af76fd, .uuid-c86593c3-90a8-42f1-9912-678e2288bacc, .uuid-0918d1ca-e43b-495d-8133-7bc09830ba0b, .uuid-b660d380-f5b5-44ab-b5cc-b5b7093930da, .uuid-d594aced-e793-46ed-b2a7-cacc5fab4629, .uuid-0bd93592-e10d-41a5-b436-18be0f55eee6, .uuid-48808a36-3c21-4282-87e9-33cb8899120d, .uuid-34e94445-af46-4247-a590-9d44250cb54e {
        stroke-width: 0px;
      }

      .uuid-fbe7b1eb-e807-48ba-9b7a-17f0935bb8fc {
        clip-path: url(#uuid-ee064d68-cb92-4191-a944-c5315f557f6a);
      }

      .uuid-b79651a0-10f1-4f3c-9ed8-80fb8e72e26d, .uuid-296265a9-d8ef-4e23-8e0c-5dfb255240c9 {
        fill: none;
      }

      .uuid-b0453965-f71a-4abc-ad35-6d96b12fc92a {
        fill: #fffbf1;
      }

      .uuid-da65339a-2781-4833-8eee-d38bf783c97f {
        fill: #f2e6cf;
      }

      .uuid-b73ffed8-787d-473f-b815-22e159ad5fc7 {
        fill: #703128;
      }

      .uuid-01ed3518-e0ae-403f-91f4-0990821bc770 {
        fill: #c7987e;
      }

      .uuid-0d132311-fcf7-4315-a254-9a1b3b376bef {
        fill: #deb299;
      }

      .uuid-296265a9-d8ef-4e23-8e0c-5dfb255240c9, .uuid-313412b2-b28a-4395-af37-3933fecaaf94 {
        stroke: #fdfcfa;
        stroke-miterlimit: 10;
      }

      .uuid-d08dc8f9-c98d-4fc1-b039-7ec443af76fd {
        fill: #f9f0d4;
      }

      .uuid-c86593c3-90a8-42f1-9912-678e2288bacc {
        fill: #deb295;
      }

      .uuid-0918d1ca-e43b-495d-8133-7bc09830ba0b {
        fill: #f5f3e7;
      }

      .uuid-b660d380-f5b5-44ab-b5cc-b5b7093930da {
        fill: #1a2e2f;
      }

      .uuid-d594aced-e793-46ed-b2a7-cacc5fab4629 {
        fill: #ebede2;
      }

      .uuid-0bd93592-e10d-41a5-b436-18be0f55eee6 {
        fill: #b4c5d5;
      }

      .uuid-48808a36-3c21-4282-87e9-33cb8899120d {
        fill: #fff;
      }

      .uuid-313412b2-b28a-4395-af37-3933fecaaf94 {
        fill: #fdfcfa;
      }

      .uuid-34e94445-af46-4247-a590-9d44250cb54e {
        fill: #a1b7ce;
      }
    </style>
    <clipPath id="uuid-ee064d68-cb92-4191-a944-c5315f557f6a">
      <rect class="uuid-b79651a0-10f1-4f3c-9ed8-80fb8e72e26d" width="429" height="426" rx="97.34" ry="97.34"/>
    </clipPath>
  </defs>
  <g id="uuid-a0bbacea-8628-4ff8-a1af-7d165ea8d125" data-name="Layer 7">
    <g class="uuid-fbe7b1eb-e807-48ba-9b7a-17f0935bb8fc">
      <rect class="uuid-da65339a-2781-4833-8eee-d38bf783c97f" x="1" y="-1" width="429" height="426" rx="97.34" ry="97.34"/>
      <path class="uuid-0bd93592-e10d-41a5-b436-18be0f55eee6" d="M428.59,186.3S32.59,198.85.59,198.85c0,0-1,98.04-1,98.04,0,0,20,5.7,35,2.28s40-11.4,54-7.98c10.5,2.57,16.5,1.28,18.84.48.93-.32,1.92-.42,2.91-.35,4.21.3,14.89,1.02,19.25,1.01,12-.03,52-15.96,57-20.52s130-15.96,141-11.4,79,1.14,102-11.4l-1-62.7Z"/>
      <path class="uuid-34e94445-af46-4247-a590-9d44250cb54e" d="M2.59,201.3s66,8,108-1,61-1,77-1,52-9,98-6,27,6,63,1,55-5,67-3l12,2,3-246H1.59l1,254Z"/>
      <circle class="uuid-0918d1ca-e43b-495d-8133-7bc09830ba0b" cx="327.09" cy="105.8" r="54.5"/>
      <g>
        <path class="uuid-d08dc8f9-c98d-4fc1-b039-7ec443af76fd" d="M-4.41,438.3s56-2,67,1,41,0,41,0c0,0,38,3,50,1s53-1,59-1,31-3,38-3,52,0,59-3,25,1,43,0,73,0,73,0v-38s-30-50-53-62c0,0-20-21-22-27s-1-22-33-15-53,4-53,4L-3.86,328.89l-.55,109.42Z"/>
        <path class="uuid-48808a36-3c21-4282-87e9-33cb8899120d" d="M273.59,278.3s19,7,24,11,24,12,24,12l21-42s6-8-6-9-17-2-17-2c0,0-3-10-19-11l-27,41Z"/>
        <path class="uuid-c86593c3-90a8-42f1-9912-678e2288bacc" d="M-3.41,310.3l4,5s35-19,46-21,22-12,22-12c0,0,25-29,65-10,0,0,1-3,7-4s13,0,13,0c0,0,4-10,10-11s56-24,56-24l24,15s9,0,9,38c0,0,10-1,23-7,0,0,7,1,14-2,0,0,6,0,2,4l-4,2,7,4,3,2s-6,6-12,6c0,0-10,6-18,4l-12,1,3,7s23,0,28-3,8-6,8-6c0,0,1-7,5-8l1-6s4-7,4,0v9l8,3s5,6-11,12l-24,14s-25,10-30,9-11-9-11-9l-11-23h-2s3,13-3,17-15,21-15,21l-7,4-31,1s-6-1-5-7c0,0-3,4-12,4s-26,1-26,1c0,0-41,21-50,23S-.41,377.3-3.41,372.3v-62Z"/>
        <path class="uuid-d594aced-e793-46ed-b2a7-cacc5fab4629" d="M245.59,246.3s9,10,6,21c0,0,2,19,1,21s-19,13-26,8c0,0-1,1-3,0,0,0,2,21-3,21s-23,25-23,25c0,0-25,3-29,1s-7.85-4-6.92-9.5-28.72-61.52-28.72-61.52c0,0,3.64-6.98,20.64-3.98,0,0,6-13,13-13s46-21,46-21l18,1,15,11Z"/>
        <path class="uuid-b0453965-f71a-4abc-ad35-6d96b12fc92a" d="M77.59,295.3s31-36,56,5c0,0,11,23-9,39h30s18-3,10-28-30-39-30-39c0,0-33-17-46-1s-11,24-11,24Z"/>
        <path class="uuid-0d132311-fcf7-4315-a254-9a1b3b376bef" d="M267.59,214.3s-2,26-8,31-12,1-12,1l1-27,19-5Z"/>
        <path class="uuid-b660d380-f5b5-44ab-b5cc-b5b7093930da" d="M268.59,206.3s3-22-28-22-1,0-1,0c0,0-18-1-27,17s-18,19-18,19c0,0-25,9-22,22,0,0-4,14-8,16,0,0-5,7-1,10s11-3,14-4,19-18,26-21,16-9,29-1,15,5,15,5c0,0,8-7,2-19,0,0,0-6,4-5s13,0,14-7,1-10,1-10Z"/>
      </g>
      <g>
        <path class="uuid-01ed3518-e0ae-403f-91f4-0990821bc770" d="M208.68,284.3v-7s2.35-8,4.7,0l-.05,7.27-4.64-.27Z"/>
        <path class="uuid-b73ffed8-787d-473f-b815-22e159ad5fc7" d="M194.59,365.3s11.35,7.73,24,.39c.22-.13,1.61-1.26,1.83-1.39l1.17-53-5.87-9v-19h-8.22l-1.17,19-9.39,9-2.35,54Z"/>
      </g>
      <g>
        <path class="uuid-b73ffed8-787d-473f-b815-22e159ad5fc7" d="M230.59,327.3s10,3,20,0c0,0-1.01,16.89-11,18-9,1-9-18-9-18Z"/>
        <path class="uuid-056dc677-4bd0-424e-90d9-c0b895f081ca" d="M250.59,326.3c0,1.1-3.7,2-9.5,2s-10.5-1.9-10.5-3,4.7-1,10.5-1,9.5.9,9.5,2Z"/>
        <path class="uuid-296265a9-d8ef-4e23-8e0c-5dfb255240c9" d="M230.59,319.3s8-7,21,0c0,0-.09,26-12,26s-9.05-25.64-9.04-25.75c.02-.16.04-.25.04-.25Z"/>
        <line class="uuid-296265a9-d8ef-4e23-8e0c-5dfb255240c9" x1="239.09" y1="363.3" x2="239.09" y2="346.3"/>
        <ellipse class="uuid-313412b2-b28a-4395-af37-3933fecaaf94" cx="238.59" cy="364.3" rx="8.5" ry="1.5"/>
        <path class="uuid-296265a9-d8ef-4e23-8e0c-5dfb255240c9" d="M230.41,326.56s10.23,5.19,20.45.72"/>
        <path class="uuid-296265a9-d8ef-4e23-8e0c-5dfb255240c9" d="M251.09,319.8s-8.02,5.32-20.51.16"/>
      </g>
    </g>
  </g>
</svg>