<?xml version="1.0" encoding="UTF-8"?>
<svg id="uuid-0dc0da7c-5362-4cd9-a475-63cc8d3349dc" data-name="Layer 2" xmlns="http://www.w3.org/2000/svg" xmlns:xlink="http://www.w3.org/1999/xlink" viewBox="0 0 429 426">
  <defs>
    <style>
      .uuid-d221b778-2536-4b0b-b59f-da72fb25d645 {
        fill: #f5f7f4;
      }

      .uuid-d221b778-2536-4b0b-b59f-da72fb25d645, .uuid-c9a779d2-1691-46d1-b741-4d5b8a9046b0, .uuid-d01b299a-7ec3-4139-910b-e402933e70c9, .uuid-a5e32622-1776-499c-ba24-18e4d3f4ef60, .uuid-56ad6110-c7a0-48f9-a645-7900e3adb054, .uuid-9a77aa62-8465-4a0c-8381-0782b991231c, .uuid-921d7f1b-a328-4579-889b-dee5670cdb4f {
        stroke-width: 0px;
      }

      .uuid-c9a779d2-1691-46d1-b741-4d5b8a9046b0 {
        fill: #606432;
      }

      .uuid-d01b299a-7ec3-4139-910b-e402933e70c9 {
        fill: none;
      }

      .uuid-a5e32622-1776-499c-ba24-18e4d3f4ef60 {
        fill: #972928;
      }

      .uuid-56ad6110-c7a0-48f9-a645-7900e3adb054 {
        fill: #f2e6cf;
      }

      .uuid-9a77aa62-8465-4a0c-8381-0782b991231c {
        fill: #f8d7ce;
      }

      .uuid-5c056cae-ad90-460b-8d22-42f8b4bf072a {
        clip-path: url(#uuid-cf9fd2ca-cbf8-4ee2-9392-0af70c60a01f);
      }

      .uuid-921d7f1b-a328-4579-889b-dee5670cdb4f {
        fill: #bbd1b4;
      }
    </style>
    <clipPath id="uuid-cf9fd2ca-cbf8-4ee2-9392-0af70c60a01f">
      <rect class="uuid-d01b299a-7ec3-4139-910b-e402933e70c9" width="429" height="426" rx="97.34" ry="97.34"/>
    </clipPath>
  </defs>
  <g id="uuid-04510140-2f5a-4e69-b820-cb677ed61674" data-name="Layer 9">
    <g class="uuid-5c056cae-ad90-460b-8d22-42f8b4bf072a">
      <rect class="uuid-56ad6110-c7a0-48f9-a645-7900e3adb054" x="1" y="-1" width="429" height="426" rx="97.34" ry="97.34"/>
      <g>
        <rect class="uuid-921d7f1b-a328-4579-889b-dee5670cdb4f" x="-6.17" y="-12.16" width="90" height="90"/>
        <rect class="uuid-921d7f1b-a328-4579-889b-dee5670cdb4f" x="83.83" y="77.84" width="90" height="90"/>
        <rect class="uuid-921d7f1b-a328-4579-889b-dee5670cdb4f" x="-7.17" y="167.84" width="90" height="90"/>
        <rect class="uuid-921d7f1b-a328-4579-889b-dee5670cdb4f" x="82.83" y="256.84" width="90" height="90"/>
        <rect class="uuid-921d7f1b-a328-4579-889b-dee5670cdb4f" x="-8.17" y="346.84" width="90" height="90"/>
        <rect class="uuid-921d7f1b-a328-4579-889b-dee5670cdb4f" x="171.83" y="167.84" width="90" height="90"/>
        <rect class="uuid-921d7f1b-a328-4579-889b-dee5670cdb4f" x="173.83" y="-11.16" width="90" height="90"/>
        <rect class="uuid-921d7f1b-a328-4579-889b-dee5670cdb4f" x="262.83" y="77.84" width="90" height="90"/>
        <rect class="uuid-921d7f1b-a328-4579-889b-dee5670cdb4f" x="352.83" y="-12.16" width="90" height="90"/>
        <rect class="uuid-921d7f1b-a328-4579-889b-dee5670cdb4f" x="353.83" y="166.84" width="90" height="90"/>
        <rect class="uuid-921d7f1b-a328-4579-889b-dee5670cdb4f" x="262.83" y="255.84" width="90" height="90"/>
        <rect class="uuid-921d7f1b-a328-4579-889b-dee5670cdb4f" x="173.83" y="344.84" width="90" height="90"/>
        <rect class="uuid-921d7f1b-a328-4579-889b-dee5670cdb4f" x="352.83" y="345.84" width="90" height="90"/>
      </g>
    </g>
    <g>
      <ellipse class="uuid-9a77aa62-8465-4a0c-8381-0782b991231c" cx="152.43" cy="140.34" rx="73.59" ry="78.5"/>
      <g>
        <polygon class="uuid-c9a779d2-1691-46d1-b741-4d5b8a9046b0" points="145.83 73.76 153.67 85.52 165.42 72.46 162.81 72.46 157.59 76.37 157.59 69.84 154.98 71.15 154.98 76.37 148.45 73.76 145.83 73.76"/>
        <path class="uuid-a5e32622-1776-499c-ba24-18e4d3f4ef60" d="M146.73,89.53c.08-2.79,1.63-5.35,4.1-6.64.57-.3,1.2-.58,1.86-.81,3.26-1.14,7.51-1.14,11.42,3.43,7.84,9.14-3.92,16.98-6.53,18.28-2.12,1.06-11.2-2.15-10.85-14.26Z"/>
      </g>
      <g>
        <polygon class="uuid-c9a779d2-1691-46d1-b741-4d5b8a9046b0" points="214.96 125.53 203.26 133.45 216.4 145.11 216.38 142.5 212.43 137.3 218.96 137.26 217.63 134.65 212.41 134.69 214.97 128.14 214.96 125.53"/>
        <path class="uuid-a5e32622-1776-499c-ba24-18e4d3f4ef60" d="M199.19,126.54c2.79.06,5.36,1.59,6.67,4.06.3.57.59,1.19.82,1.85,1.16,3.26,1.19,7.5-3.35,11.44-9.09,7.9-17.01-3.8-18.33-6.4-1.08-2.11,2.07-11.21,14.19-10.95Z"/>
      </g>
      <g>
        <polygon class="uuid-c9a779d2-1691-46d1-b741-4d5b8a9046b0" points="164.47 205.03 156.54 193.34 144.9 206.49 147.51 206.47 152.7 202.51 152.75 209.04 155.35 207.71 155.31 202.49 161.86 205.05 164.47 205.03"/>
        <path class="uuid-a5e32622-1776-499c-ba24-18e4d3f4ef60" d="M163.45,189.26c-.06,2.79-1.58,5.36-4.05,6.67-.57.3-1.19.59-1.85.82-3.25,1.17-7.5,1.2-11.45-3.34-7.91-9.08,3.78-17.01,6.38-18.34,2.11-1.08,11.21,2.06,10.97,14.18Z"/>
      </g>
      <g>
        <polygon class="uuid-c9a779d2-1691-46d1-b741-4d5b8a9046b0" points="90.08 146.68 101.68 138.62 88.4 127.12 88.45 129.73 92.47 134.88 85.94 135 87.3 137.59 92.52 137.49 90.03 144.07 90.08 146.68"/>
        <path class="uuid-a5e32622-1776-499c-ba24-18e4d3f4ef60" d="M105.83,145.48c-2.79-.03-5.38-1.52-6.72-3.98-.31-.57-.6-1.18-.84-1.84-1.2-3.24-1.28-7.48,3.21-11.48,8.99-8.01,17.05,3.6,18.4,6.18,1.1,2.1-1.94,11.23-14.06,11.12Z"/>
      </g>
      <g>
        <polygon class="uuid-c9a779d2-1691-46d1-b741-4d5b8a9046b0" points="114.37 187.8 116.95 173.91 99.42 175.08 101.29 176.9 107.76 177.73 103.21 182.41 106 183.3 109.64 179.55 112.5 185.98 114.37 187.8"/>
        <path class="uuid-a5e32622-1776-499c-ba24-18e4d3f4ef60" d="M124.72,175.86c-2,1.95-4.9,2.7-7.57,1.9-.62-.19-1.26-.42-1.9-.72-3.13-1.46-6.17-4.42-5.8-10.42.76-12.02,14.64-9.44,17.43-8.56,2.26.72,6.53,9.35-2.16,17.79Z"/>
      </g>
      <g>
        <polygon class="uuid-c9a779d2-1691-46d1-b741-4d5b8a9046b0" points="105.28 98.97 119.32 100.51 116.86 83.11 115.19 85.12 114.83 91.64 109.83 87.44 109.15 90.28 113.16 93.64 106.96 96.97 105.28 98.97"/>
        <path class="uuid-a5e32622-1776-499c-ba24-18e4d3f4ef60" d="M117.95,108.41c-2.09-1.85-3.06-4.68-2.45-7.41.14-.63.33-1.29.57-1.95,1.22-3.23,3.95-6.48,9.96-6.55,12.04-.13,10.5,13.91,9.82,16.75-.55,2.31-8.84,7.2-17.9-.84Z"/>
      </g>
      <g>
        <polygon class="uuid-c9a779d2-1691-46d1-b741-4d5b8a9046b0" points="193.76 90.18 190.18 103.84 207.75 103.96 206.01 102.01 199.61 100.7 204.5 96.37 201.78 95.28 197.88 98.75 195.5 92.13 193.76 90.18"/>
        <path class="uuid-a5e32622-1776-499c-ba24-18e4d3f4ef60" d="M182.56,101.33c2.14-1.8,5.08-2.34,7.69-1.34.6.23,1.23.51,1.84.85,3.02,1.68,5.83,4.86,5.02,10.82-1.63,11.93-15.3,8.34-18.01,7.26-2.2-.88-5.83-9.8,3.46-17.59Z"/>
      </g>
      <g>
        <polygon class="uuid-c9a779d2-1691-46d1-b741-4d5b8a9046b0" points="208.61 173.65 194.48 173.38 198.51 190.48 200 188.34 199.76 181.81 205.12 185.53 205.54 182.64 201.25 179.66 207.12 175.79 208.61 173.65"/>
        <path class="uuid-a5e32622-1776-499c-ba24-18e4d3f4ef60" d="M195.14,165.39c2.25,1.66,3.47,4.39,3.11,7.16-.08.64-.21,1.31-.4,1.99-.93,3.33-3.35,6.81-9.33,7.42-11.98,1.22-11.71-12.9-11.29-15.79.34-2.35,8.15-7.97,17.91-.78Z"/>
      </g>
      <ellipse class="uuid-d221b778-2536-4b0b-b59f-da72fb25d645" cx="151.33" cy="136.84" rx="18.5" ry="19"/>
    </g>
    <path class="uuid-d221b778-2536-4b0b-b59f-da72fb25d645" d="M255.83,157.84l-18,59s0,12,8,10l1,21s2,8,6,7,4-8,4-8l-1-20s6-2,8-6-8-63-8-63Z"/>
    <path class="uuid-d221b778-2536-4b0b-b59f-da72fb25d645" d="M247.83,276.84s36,41,35,43-4,4-8-1-30-36-32-37-5,5-27-22l2-3,10,12,2-3-9-11,2-2,11,12,2-2-11-11,2-3,9,11-7-14,14,16s8,7,5,15Z"/>
  </g>
</svg>