<?xml version="1.0" encoding="UTF-8"?>
<svg id="uuid-d238414c-14a1-4d64-8cf3-b59d5c54294b" data-name="Layer 2" xmlns="http://www.w3.org/2000/svg" xmlns:xlink="http://www.w3.org/1999/xlink" viewBox="0 0 429 426">
  <defs>
    <style>
      .uuid-26525c39-5428-4c01-8f4a-e9be6c6b5163 {
        fill: #c2c2c2;
      }

      .uuid-26525c39-5428-4c01-8f4a-e9be6c6b5163, .uuid-51cd6c7b-9270-4e44-95a6-2bc1fe26c11b, .uuid-4d5bf226-a4dc-467c-a4c2-bc8b160cbb05, .uuid-0c1c54ed-64a3-4d12-9b23-9edde8863024, .uuid-f160e8d7-902b-4f9b-8ea3-0fcb6133ff04, .uuid-ced770cc-8fe4-4785-b818-5c76f8f4b6f4, .uuid-2bab7637-d2ee-4d47-8a6d-8d899e464a14, .uuid-3d2a5764-57ee-4402-9e37-42fedb30d7ab, .uuid-42745eda-c8bb-4e48-9654-930cc1d64ba7, .uuid-3b3b1f3f-2627-485f-a911-dbb99bd0ab35, .uuid-d740d2d8-300d-49af-aeb2-3eff26359b65, .uuid-ff427640-ac0d-42db-88ca-c19abdc85536, .uuid-b4c79708-5bec-4582-a1f1-0626b58800d5, .uuid-4fb083b3-b1f7-4dbd-95b4-85a9080f5fde, .uuid-4c1a674a-cd9e-439e-89f3-35606da97118, .uuid-28c59e05-17f2-44aa-bb72-194cf976c6f7, .uuid-a1e3b811-87c7-4563-8742-fdea418d5a7b, .uuid-b3613884-3366-4139-8487-213eb2a88c4f, .uuid-f00997b5-97ea-4a47-a02a-d96cdc667b33, .uuid-345fc9b3-537a-45c4-ad37-f6b18a4355d0, .uuid-88baa26f-ed2e-4396-88da-3e785abbc906, .uuid-1dea6879-863e-4966-a914-1da0fb23917a, .uuid-24e742d3-21f8-4cb0-b29f-e54565bc00ee, .uuid-ffaf0816-b9f5-48f2-940d-102ce389eab6, .uuid-ca17112f-0136-4af7-934a-8701ff07056e, .uuid-d26f60c1-3cae-4fe7-9da6-37d623ce8861, .uuid-87080b83-35ec-4410-acb0-eaee6c126cba, .uuid-7bc40ee6-f459-4bbc-bb07-9d4f6bef1b1e, .uuid-0c7fde24-c3f3-4b95-90a5-000da90fe3be {
        stroke-width: 0px;
      }

      .uuid-51cd6c7b-9270-4e44-95a6-2bc1fe26c11b {
        fill: #e0572d;
      }

      .uuid-4d5bf226-a4dc-467c-a4c2-bc8b160cbb05 {
        fill: #b7722d;
      }

      .uuid-0c1c54ed-64a3-4d12-9b23-9edde8863024, .uuid-568d0fc8-a613-4c9f-a7d0-c948d1fa8bcb, .uuid-3bc208ec-c964-4b1c-a135-e6e07581e274, .uuid-ff31471f-4f23-42cc-9430-8e2659f0d8c8, .uuid-997b55e0-73be-46ba-8475-4d0f4972ca07, .uuid-15bd145b-24e7-49a0-9661-18e7cd1a2531 {
        fill: none;
      }

      .uuid-f160e8d7-902b-4f9b-8ea3-0fcb6133ff04 {
        fill: #eab565;
      }

      .uuid-568d0fc8-a613-4c9f-a7d0-c948d1fa8bcb {
        stroke-width: 4px;
      }

      .uuid-568d0fc8-a613-4c9f-a7d0-c948d1fa8bcb, .uuid-3bc208ec-c964-4b1c-a135-e6e07581e274, .uuid-ff31471f-4f23-42cc-9430-8e2659f0d8c8, .uuid-0f4261d4-7fcf-48d3-a11d-69583e6818b9, .uuid-997b55e0-73be-46ba-8475-4d0f4972ca07, .uuid-15bd145b-24e7-49a0-9661-18e7cd1a2531 {
        stroke-miterlimit: 10;
      }

      .uuid-568d0fc8-a613-4c9f-a7d0-c948d1fa8bcb, .uuid-ff31471f-4f23-42cc-9430-8e2659f0d8c8 {
        stroke: #fff;
      }

      .uuid-ced770cc-8fe4-4785-b818-5c76f8f4b6f4 {
        fill: #102a4b;
      }

      .uuid-3bc208ec-c964-4b1c-a135-e6e07581e274 {
        stroke-width: 2px;
      }

      .uuid-3bc208ec-c964-4b1c-a135-e6e07581e274, .uuid-997b55e0-73be-46ba-8475-4d0f4972ca07, .uuid-15bd145b-24e7-49a0-9661-18e7cd1a2531 {
        stroke: #4a6556;
      }

      .uuid-2bab7637-d2ee-4d47-8a6d-8d899e464a14 {
        fill: #f4ada7;
      }

      .uuid-ff31471f-4f23-42cc-9430-8e2659f0d8c8 {
        stroke-width: 9px;
      }

      .uuid-3d2a5764-57ee-4402-9e37-42fedb30d7ab {
        fill: #e3af5b;
      }

      .uuid-0fb90a1d-0461-4543-bae8-513cdd7b3bca {
        clip-path: url(#uuid-b26d8788-2f98-48db-bc28-1938f6919c53);
      }

      .uuid-42745eda-c8bb-4e48-9654-930cc1d64ba7 {
        fill: #d59c91;
      }

      .uuid-3b3b1f3f-2627-485f-a911-dbb99bd0ab35 {
        fill: #59856a;
      }

      .uuid-0f4261d4-7fcf-48d3-a11d-69583e6818b9 {
        fill: #fff;
        stroke: #d9b57b;
      }

      .uuid-d740d2d8-300d-49af-aeb2-3eff26359b65 {
        fill: #532c1d;
      }

      .uuid-ff427640-ac0d-42db-88ca-c19abdc85536 {
        fill: #578368;
      }

      .uuid-b4c79708-5bec-4582-a1f1-0626b58800d5 {
        fill: #5f2f19;
      }

      .uuid-4fb083b3-b1f7-4dbd-95b4-85a9080f5fde {
        fill: #ea713a;
      }

      .uuid-4c1a674a-cd9e-439e-89f3-35606da97118 {
        fill: #4a6556;
      }

      .uuid-28c59e05-17f2-44aa-bb72-194cf976c6f7 {
        fill: #6b351d;
      }

      .uuid-a1e3b811-87c7-4563-8742-fdea418d5a7b {
        fill: #653119;
      }

      .uuid-b3613884-3366-4139-8487-213eb2a88c4f {
        fill: #bdd7ee;
      }

      .uuid-f00997b5-97ea-4a47-a02a-d96cdc667b33 {
        fill: #22010c;
      }

      .uuid-345fc9b3-537a-45c4-ad37-f6b18a4355d0 {
        fill: #fefaf7;
      }

      .uuid-88baa26f-ed2e-4396-88da-3e785abbc906 {
        fill: #fab164;
      }

      .uuid-997b55e0-73be-46ba-8475-4d0f4972ca07 {
        stroke-width: 3px;
      }

      .uuid-1dea6879-863e-4966-a914-1da0fb23917a {
        fill: #f0bd6c;
      }

      .uuid-24e742d3-21f8-4cb0-b29f-e54565bc00ee {
        fill: #f3e7d9;
      }

      .uuid-ffaf0816-b9f5-48f2-940d-102ce389eab6 {
        fill: #f6eee3;
      }

      .uuid-ca17112f-0136-4af7-934a-8701ff07056e {
        fill: #dab684;
      }

      .uuid-d26f60c1-3cae-4fe7-9da6-37d623ce8861 {
        fill: #fbedea;
      }

      .uuid-87080b83-35ec-4410-acb0-eaee6c126cba {
        fill: #260412;
      }

      .uuid-7bc40ee6-f459-4bbc-bb07-9d4f6bef1b1e {
        fill: #e9b257;
      }

      .uuid-0c7fde24-c3f3-4b95-90a5-000da90fe3be {
        fill: #df9d91;
      }
    </style>
    <clipPath id="uuid-b26d8788-2f98-48db-bc28-1938f6919c53">
      <rect class="uuid-0c1c54ed-64a3-4d12-9b23-9edde8863024" y="0" width="429" height="426" rx="97.34" ry="97.34"/>
    </clipPath>
  </defs>
  <g id="uuid-e9484b43-86fd-4e5b-8630-a1bfb391fabc" data-name="Layer 6">
    <g>
      <g class="uuid-0fb90a1d-0461-4543-bae8-513cdd7b3bca">
        <rect class="uuid-d26f60c1-3cae-4fe7-9da6-37d623ce8861" y=".41" width="429" height="426" rx="97.34" ry="97.34"/>
        <polygon class="uuid-b3613884-3366-4139-8487-213eb2a88c4f" points="286.34 .41 285.34 167.41 123.34 167.41 123.34 -6.59 286.34 .41"/>
        <polyline class="uuid-ff31471f-4f23-42cc-9430-8e2659f0d8c8" points="283.34 -.59 284.34 164.41 123.34 164.41"/>
        <line class="uuid-568d0fc8-a613-4c9f-a7d0-c948d1fa8bcb" x1="197.34" y1="161.41" x2="196.34" y2="-.59"/>
        <g>
          <line class="uuid-568d0fc8-a613-4c9f-a7d0-c948d1fa8bcb" x1="280.34" y1="31.41" x2="120.34" y2="31.41"/>
          <line class="uuid-568d0fc8-a613-4c9f-a7d0-c948d1fa8bcb" x1="278.84" y1="94.91" x2="127.84" y2="97.91"/>
        </g>
        <rect class="uuid-ca17112f-0136-4af7-934a-8701ff07056e" x="-5.66" y="268.41" width="435" height="159"/>
        <path class="uuid-26525c39-5428-4c01-8f4a-e9be6c6b5163" d="M179.34-1.59s0,95,2,98,2,40,0,42,6,46,2,53-52,6-52,6l-5,10h-4L120.34-2.59l59,1Z"/>
        <path class="uuid-28c59e05-17f2-44aa-bb72-194cf976c6f7" d="M390.34,277.41s2,2,0,3-17,5-26,1-6-34-6-34c0,0-1-3,7-4s31-2,32,2-1,12-1,12c0,0,1,1-3,2l-3,18Z"/>
        <path class="uuid-f00997b5-97ea-4a47-a02a-d96cdc667b33" d="M362.34,246.41c0-3,8.99-3,17-3s15,1,15,3-5.99,3-14,3-18,1-18-3Z"/>
        <g>
          <path class="uuid-4c1a674a-cd9e-439e-89f3-35606da97118" d="M360.34,169.41s-35-47-53-49c0,0,10-4,14-1l3-2s6-2,5,8l5-4,6,5s6,0,6,3-1,11-1,11l5-4s11,3,13,18-3,15-3,15Z"/>
          <path class="uuid-4c1a674a-cd9e-439e-89f3-35606da97118" d="M393.34,215.41s11-4,17-2,17,9,17,10-1-15-12-18l-4,1s-1-5-6-3-13,4-13,4v7l1,1Z"/>
          <path class="uuid-997b55e0-73be-46ba-8475-4d0f4972ca07" d="M375.34,247.41s1.08-39.97,13-61"/>
          <path class="uuid-3bc208ec-c964-4b1c-a135-e6e07581e274" d="M393.34,213.41s-15.72,22.54-17.36,32.77"/>
          <path class="uuid-4c1a674a-cd9e-439e-89f3-35606da97118" d="M365.34,215.75l-1.17,1s-.89-4-7.91-2-23.91,9-23.91,10,5.17-15,18.06-18l4.69,1s1.9-3.84,7.76-1.84"/>
          <path class="uuid-3bc208ec-c964-4b1c-a135-e6e07581e274" d="M375.98,236.01s-6.83-57.53-28.99-66.32"/>
          <path class="uuid-3bc208ec-c964-4b1c-a135-e6e07581e274" d="M378.43,215.68s0-36.95,6.46-44.61"/>
          <path class="uuid-15bd145b-24e7-49a0-9661-18e7cd1a2531" d="M372.34,172.41s4.14,39.21,1.57,49.61"/>
          <path class="uuid-15bd145b-24e7-49a0-9661-18e7cd1a2531" d="M371.09,210.59s-4.75-35.18-9.75-43.18"/>
          <path class="uuid-3bc208ec-c964-4b1c-a135-e6e07581e274" d="M375.34,238.41s-5-18-13-25"/>
          <path class="uuid-4c1a674a-cd9e-439e-89f3-35606da97118" d="M372.34,175.41s-24-20-14-44h10l-8-6s4-26,8-31,4-1,4-1l5,16-7,4h9s4,37,2,41-6,22-9,21Z"/>
          <path class="uuid-4c1a674a-cd9e-439e-89f3-35606da97118" d="M384.34,173.41s-10-15,4-37l8,6v-15l9-5s2,6,2,8c0,0,1-6,5-9s9-3,9-3l4-2s4,6-6,17-11,6-11,6c0,0-5,14-15,20,0,0-2,12-9,14Z"/>
          <path class="uuid-4c1a674a-cd9e-439e-89f3-35606da97118" d="M390.34,188.41s10-9,21-5,19,8,19,8l12,7s-2-17-7-18-6-2-6-2l-1-4s-1-2-4-1-5-3-5-3c0,0-2-1-6,3l-5-7s-7,1-9,4h-5l-7,8v11l3-1Z"/>
          <path class="uuid-4c1a674a-cd9e-439e-89f3-35606da97118" d="M342.1,168.91s-4.84-1.67-15.98-1.44-19.61,1.43-19.61,1.43l-13.05,2.74s7.54-15.35,12.33-14.69,6.01.04,6.01.04l2.25-3.44s1.57-1.56,3.9.34,5.46-1.22,5.46-1.22c0,0,2.12-.3,4.32,4.75l6.82-4.98s5.89,3.19,6.65,6.65l4.45,1.6,3.51,9.77-3.73.35-3.33-1.9Z"/>
        </g>
        <g>
          <path class="uuid-d740d2d8-300d-49af-aeb2-3eff26359b65" d="M102.34,291.41s-6,21-10,22v-22h10Z"/>
          <path class="uuid-d740d2d8-300d-49af-aeb2-3eff26359b65" d="M104.34,281.41s6,21,10,22v-22h-10Z"/>
          <path class="uuid-d740d2d8-300d-49af-aeb2-3eff26359b65" d="M333.34,283.41s6,21,10,22v-22h-10Z"/>
          <path class="uuid-d740d2d8-300d-49af-aeb2-3eff26359b65" d="M350.34,292.41s6,21,10,22v-22h-10Z"/>
          <path class="uuid-51cd6c7b-9270-4e44-95a6-2bc1fe26c11b" d="M91.34,292.41l271,1v-52l-25-19v-29s-48-5-54,0c0,0-52-5-57,2,0,0-20-7-31,0,0,0-52,0-57-1s-19,1-17,13-16,18-16,18l-14,14v53Z"/>
        </g>
        <path class="uuid-f160e8d7-902b-4f9b-8ea3-0fcb6133ff04" d="M128.34,263.41s-5-1-7-9-4-32-6-35-5-5-5-5c0,0,5-8,16-6s20-5,20-5c0,0,9-1,10-2s6,32,9,35,8,12,8,12c0,0-3,5-8,5s-19,2-18,5c0,0-19-1-19,5Z"/>
        <polygon class="uuid-2bab7637-d2ee-4d47-8a6d-8d899e464a14" points="-.66 211.41 50.34 212.41 51.34 293.41 .34 295.41 -.66 211.41"/>
        <g>
          <path class="uuid-24e742d3-21f8-4cb0-b29f-e54565bc00ee" d="M56.34,400.41s149,1,159,0,167-4,168-2l-52-66s-93,1-101,3-132,0-132,0l-5.3,8.21-36.7,56.79Z"/>
          <path class="uuid-4d5bf226-a4dc-467c-a4c2-bc8b160cbb05" d="M216.07,342.67l-3.73,53.74s-3,21-7,0l1-55,9.73,1.26Z"/>
          <path class="uuid-4d5bf226-a4dc-467c-a4c2-bc8b160cbb05" d="M180.22,333.36l-9.73,52.74s-2.15,6.31-3-1l6-53,6.73,1.26Z"/>
          <path class="uuid-4d5bf226-a4dc-467c-a4c2-bc8b160cbb05" d="M253.22,332.21l3.27,49.74s-1.15,7.31-4,0l-8-47,8.73-2.74Z"/>
          <ellipse class="uuid-2bab7637-d2ee-4d47-8a6d-8d899e464a14" cx="213.84" cy="325.91" rx="42.5" ry="16.5"/>
        </g>
        <g>
          <path class="uuid-7bc40ee6-f459-4bbc-bb07-9d4f6bef1b1e" d="M225.34,46.41c0,1.66-1.57,3-3.5,3s-3.5-1.34-3.5-3,0-5,3.5-5,3.5,3.34,3.5,5Z"/>
          <g>
            <path class="uuid-ff427640-ac0d-42db-88ca-c19abdc85536" d="M226.34,15.41v9l22,10v8c-33,5-55,0-55,0l2-8,20-10v-9h11Z"/>
            <line class="uuid-3b3b1f3f-2627-485f-a911-dbb99bd0ab35" x1="220.34" y1="-4.59" x2="220.75" y2="15.25"/>
          </g>
        </g>
      </g>
      <g>
        <rect class="uuid-0f4261d4-7fcf-48d3-a11d-69583e6818b9" x="58.84" y="70.91" width="36" height="50"/>
        <path class="uuid-4fb083b3-b1f7-4dbd-95b4-85a9080f5fde" d="M78.91,91.63c-3.16,1.7-7.99.98-9.68-2.19s.38-7.58,3.54-9.27,7.99-.98,9.68,2.19-.38,7.58-3.54,9.27Z"/>
        <circle class="uuid-1dea6879-863e-4966-a914-1da0fb23917a" cx="80.84" cy="94.91" r="6.5"/>
      </g>
      <g>
        <polygon class="uuid-0c7fde24-c3f3-4b95-90a5-000da90fe3be" points="304.34 182.41 317.34 192.41 331.34 186.41 329.34 162.41 310.34 154.41 304.34 157.41 302.34 165.41 304.34 182.41"/>
        <path class="uuid-0c7fde24-c3f3-4b95-90a5-000da90fe3be" d="M343.73,195.72l-.4,24.69,13,13s8,5,8,7c0,0,2,10-1,12s-2-1-2-1c0,0,0-10-4-10s0,4,0,4c0,0,1,0,0,1s-4-6-4-6v-4l-15-8-3.64-29.72,9.04-2.96"/>
        <path class="uuid-42745eda-c8bb-4e48-9654-930cc1d64ba7" d="M299.55,200.09l-7.21,21.31-20,18-1,3h-3s-4-2-8,0h-3s1-5,8-7c0,0,17-20,19-20l9.98-25.48s6,5.9,5.51,8.19-.28,1.98-.28,1.98"/>
        <path class="uuid-3d2a5764-57ee-4402-9e37-42fedb30d7ab" d="M292.34,189.41s9-9,15-6c0,0,10,11,20,4,0,0,13-2,17,7,0,0-2.48,3.86-7.24,3.43s-4.76,11.57-4.76,11.57l2,19h-26l-5-1-2.52-21.24s-1.48-14.76-8.48-16.76Z"/>
        <g>
          <path class="uuid-ced770cc-8fe4-4785-b818-5c76f8f4b6f4" d="M320.34,225.41h-3s0-25-1-26c0,0-1-5-7-4s-7,3-7,3c0,0-11,36-8,52s23,12,23,12c0,0,20,1,22-9s-1-55-3-57c0,0-2-7-7-6s-8,7-8,7l-1,28Z"/>
          <path class="uuid-345fc9b3-537a-45c4-ad37-f6b18a4355d0" d="M330.34,250.41v13l-8,9,2,3s0,6-8,2l-11-12v-10h8v3l3,5,5-7v-6h9Z"/>
          <path class="uuid-88baa26f-ed2e-4396-88da-3e785abbc906" d="M330.34,258.41v5l-4,5s-1-8,4-10Z"/>
          <path class="uuid-88baa26f-ed2e-4396-88da-3e785abbc906" d="M305.34,265.41v-5s4,2,3,7l-3-2Z"/>
          <path class="uuid-88baa26f-ed2e-4396-88da-3e785abbc906" d="M316.34,277.41l7-4s4,3,1,5-8-1-8-1Z"/>
        </g>
        <path class="uuid-87080b83-35ec-4410-acb0-eaee6c126cba" d="M311.34,152.41s4-3,9-2,6,5,6,5c0,0,6,4,8,3s8,7,7,8,3,4,3,4c0,0,5,2,6,6s5,6,5,6l-3,4-4-4s1,5,2,5-4,3-4,3l-2-2s-1,2,0,3-7,4-7,4c0,0-4-5-3-7s-5-1-5-1c0,0-8-3-6-14,0,0,0-3,2-5,0,0,2-8-2-7s-2,4-2,4c0,0-3-4-4-4s-1-3-1-3h-11s-1.12,2.81-.84,4.64c.09.61.34,1.11.84,1.36,2,1,1,13,6,15v2s-17,4-17,6-2-12,2-15c0,0,0-9,6-9,0,0,1-14,9-11Z"/>
      </g>
      <path class="uuid-ffaf0816-b9f5-48f2-940d-102ce389eab6" d="M201.34,242.41s10-5,20-3,21,4,29,2,24,4,24,4c0,0,14,5,15,6s-2,4-2,4l-1,4-1,1-2-4h-1v3s22,8,24,7,2,2,2,2c0,0-16,2-29-2l-1,3s-5,6-10,1l-1-4h-4s1,1,1,2c0,1,3,6-1,16-4,10-4,0-4,0v-12s-11-9-27-8h-13s-3,4-10,3l-9,1s-6,0-12,13c0,0-5,5-4-2l8-12-8-3s-6,4-9,4-2-4-2-4l11-5s6-1,8-3,9-14,9-14Z"/>
      <path class="uuid-a1e3b811-87c7-4563-8742-fdea418d5a7b" d="M201.34,251.41s-2-9,2-9l-2,9"/>
      <path class="uuid-b4c79708-5bec-4582-a1f1-0626b58800d5" d="M264.34,253.41l-4,5s-4-6-3-7,6-7,7-6,3,2,3,2c0,0,10-4,13,0,0,0,8-1,10,4,0,0-2,9-4,10s-4-6-4-6c0,0-2,10-4,10s-4-8-4-8c0,0,3-8,2-9s-2-2-3,0-1,10-1,10l-5,6s-4-10-3-11Z"/>
      <ellipse class="uuid-b4c79708-5bec-4582-a1f1-0626b58800d5" cx="272.84" cy="267.41" rx="2.5" ry="2"/>
    </g>
  </g>
</svg>