<?xml version="1.0" encoding="UTF-8"?>
<svg id="uuid-0b8ea28e-8137-4a23-8e51-a2297aab4866" data-name="Layer 2" xmlns="http://www.w3.org/2000/svg" xmlns:xlink="http://www.w3.org/1999/xlink" viewBox="0 0 429 426">
  <defs>
    <style>
      .uuid-0ec5cc00-00a0-4760-b120-5e4159d325c0 {
        fill: none;
      }

      .uuid-0ec5cc00-00a0-4760-b120-5e4159d325c0, .uuid-37b94030-db80-45b3-bd5f-146f0ad45101, .uuid-909f3d21-d34a-4d9b-83a7-cf146097ac22, .uuid-b022421e-5823-4974-8ab5-be0ae0d50a7c, .uuid-ec5a51d0-ab06-4d14-b60c-399f98b568ac, .uuid-3110ab67-9e9b-49f3-9c9d-86aa3fa64eb3, .uuid-521048c3-7542-4980-a692-9c9abff99ee1 {
        stroke-width: 0px;
      }

      .uuid-37b94030-db80-45b3-bd5f-146f0ad45101 {
        fill: #afb0aa;
      }

      .uuid-909f3d21-d34a-4d9b-83a7-cf146097ac22 {
        fill: #5f376e;
      }

      .uuid-b022421e-5823-4974-8ab5-be0ae0d50a7c {
        fill: #0f1112;
      }

      .uuid-711550a8-501f-488c-8452-8356d168fb8d {
        stroke-width: 3.19px;
      }

      .uuid-711550a8-501f-488c-8452-8356d168fb8d, .uuid-7fafd54e-fca8-4ff6-8384-1cb19aafd0e8 {
        fill: #20201c;
        stroke: #050505;
        stroke-miterlimit: 10;
      }

      .uuid-23991bd4-eaa7-43bc-a548-c59c63988d4c {
        clip-path: url(#uuid-b7e8680c-ac2a-4f8d-a716-582a1d4180ad);
      }

      .uuid-ec5a51d0-ab06-4d14-b60c-399f98b568ac {
        fill: #141a1a;
      }

      .uuid-3110ab67-9e9b-49f3-9c9d-86aa3fa64eb3 {
        fill: #a3a190;
      }

      .uuid-7fafd54e-fca8-4ff6-8384-1cb19aafd0e8 {
        stroke-width: 4.05px;
      }

      .uuid-521048c3-7542-4980-a692-9c9abff99ee1 {
        fill: #fff;
      }
    </style>
    <clipPath id="uuid-b7e8680c-ac2a-4f8d-a716-582a1d4180ad">
      <rect class="uuid-0ec5cc00-00a0-4760-b120-5e4159d325c0" width="429" height="426" rx="97.34" ry="97.34"/>
    </clipPath>
  </defs>
  <g id="uuid-cdd75402-1037-4009-b19b-6e6abbf71950" data-name="Layer 11">
    <g>
      <g class="uuid-23991bd4-eaa7-43bc-a548-c59c63988d4c">
        <rect class="uuid-909f3d21-d34a-4d9b-83a7-cf146097ac22" y=".41" width="429" height="426" rx="97.34" ry="97.34"/>
      </g>
      <g>
        <path class="uuid-521048c3-7542-4980-a692-9c9abff99ee1" d="M115.22,151.93c-1.73-9.11-7.19-50.8,36.99-54.86,2.65-.24,5.2-1.13,7.47-2.51,4.88-2.96,13.18-8.95,20.38-18.93,7.78-10.78,22.75-11.83,30.88-11.52,3.22.12,6.33,1.16,9.03,2.94,5.61,3.69,17.05,9.96,26.26,6.89,12.72-4.24,46.66-11.03,53.44,2.54,6.79,13.57,29.69,33.93,35.63,32.24,5.94-1.7,45.81,14.42,33.08,44.11l-30.54,71.26-19.1,47.75c-.83,2.08-1.26,4.31-1.26,6.55v20.86c0,3.54-1.07,7-3.06,9.93l-8.18,12c-.85,1.25-1.53,2.59-2.04,4.01-2.52,6.97-14.98,30.43-64.84,12.93-2.46-.86-5.07-1.19-7.66-.93-5.82.59-16.63,2.43-27.04,8.21-12.49,6.94-26.67-9.38-31.43-15.56-.94-1.22-1.71-2.56-2.3-3.98-2.17-5.3-10.2-21.19-29.9-25.41-19.02-4.08-26.07-22.83-28.13-30.15-.48-1.72-.7-3.5-.64-5.28l3.26-109.23c.04-1.29-.07-2.58-.31-3.85Z"/>
        <path class="uuid-ec5a51d0-ab06-4d14-b60c-399f98b568ac" d="M69.78,318.25s-5.94-14.42,21.21-15.27c0,0,17.81-3.39,21.21-7.63s9.33-9.33,12.72-7.63c3.39,1.7,10.18,3.39,3.39,16.97-6.79,13.57-12.72,22.06-25.45,24.6s-25.45,4.24-33.08-11.03Z"/>
        <path class="uuid-ec5a51d0-ab06-4d14-b60c-399f98b568ac" d="M108.02,346.83s-8.72-12.93,17.7-19.22c0,0,16.77-6.91,19.24-11.75,2.47-4.84,7.26-11.02,10.93-10.04s10.65,1.28,6.74,15.94c-3.92,14.66-8.03,24.17-19.98,29.22-11.95,5.05-24.07,9.28-34.63-4.14Z"/>
        <path class="uuid-ec5a51d0-ab06-4d14-b60c-399f98b568ac" d="M358.78,354.69s10.09-11.21-14.51-20.78c0,0-15.23-8.86-16.97-13.83-1.74-4.96-5.54-11.52-9.2-11.08-3.66.45-10.42-.21-8.57,14.36,1.85,14.56,4.55,24.22,15.39,30.66,10.84,6.44,21.95,12.11,33.87.67Z"/>
        <path class="uuid-ec5a51d0-ab06-4d14-b60c-399f98b568ac" d="M409.82,331.08s8.26-12.86-19.96-17.9c0,0-18.12-6.02-21.05-10.6-2.94-4.58-8.41-10.37-12.2-9.28-3.78,1.09-11.11,1.66-5.96,15.69,5.15,14.03,10.14,23.06,23.06,27.48,12.92,4.41,25.97,8.02,36.11-5.39Z"/>
        <path class="uuid-ec5a51d0-ab06-4d14-b60c-399f98b568ac" d="M29.06,200.34s-17.81-3.39-19.51,1.7-8.48,24.6,15.27,23.75c23.75-.85,20.36-7.63,20.36-7.63,0,0,0,51.75,49.2,53.44,49.2,1.7,50.05-35.63,50.05-35.63,0,0-6.79-22.9-11.03-26.3,0,0,31.39,8.48,35.63-16.97s-25.45-1.7-25.45-1.7l-114.52,9.33Z"/>
        <path class="uuid-37b94030-db80-45b3-bd5f-146f0ad45101" d="M20.58,191.01s3.39,22.06,25.45,19.51c0,0,15.27,21.21,31.39,0,0,0,19.51,8.48,27.99-1.7,0,0,17.81,5.09,21.21-8.48,0,0,37.33-11.88,4.24-36.48,0,0,3.39-26.3-25.45-22.9,0,0-19.51-33.93-55.14,5.94,0,0-31.39-.85-25.45,33.93,0,0-5.94,4.24-4.24,10.18Z"/>
        <circle class="uuid-3110ab67-9e9b-49f3-9c9d-86aa3fa64eb3" cx="289.49" cy="227.48" r="105.19"/>
        <circle class="uuid-37b94030-db80-45b3-bd5f-146f0ad45101" cx="288.22" cy="226.21" r="90.34"/>
      </g>
      <g>
        <circle class="uuid-711550a8-501f-488c-8452-8356d168fb8d" cx="248.29" cy="298.43" r="2.13"/>
        <circle class="uuid-711550a8-501f-488c-8452-8356d168fb8d" cx="326.01" cy="298.43" r="2.13"/>
        <circle class="uuid-711550a8-501f-488c-8452-8356d168fb8d" cx="355.81" cy="270.76" r="2.13"/>
        <circle class="uuid-711550a8-501f-488c-8452-8356d168fb8d" cx="354.75" cy="190.91" r="2.13"/>
        <circle class="uuid-711550a8-501f-488c-8452-8356d168fb8d" cx="327.07" cy="163.23" r="2.13"/>
        <circle class="uuid-711550a8-501f-488c-8452-8356d168fb8d" cx="249.36" cy="163.23" r="2.13"/>
        <circle class="uuid-711550a8-501f-488c-8452-8356d168fb8d" cx="219.55" cy="191.98" r="2.13"/>
        <circle class="uuid-711550a8-501f-488c-8452-8356d168fb8d" cx="220.62" cy="270.76" r="2.13"/>
      </g>
      <line class="uuid-7fafd54e-fca8-4ff6-8384-1cb19aafd0e8" x1="290.28" y1="143.94" x2="289.28" y2="234.56"/>
      <line class="uuid-7fafd54e-fca8-4ff6-8384-1cb19aafd0e8" x1="291.46" y1="234.3" x2="214.94" y2="237.56"/>
    </g>
    <g>
      <circle class="uuid-521048c3-7542-4980-a692-9c9abff99ee1" cx="81.94" cy="240.56" r="13"/>
      <circle class="uuid-521048c3-7542-4980-a692-9c9abff99ee1" cx="114.94" cy="235.56" r="13"/>
      <circle class="uuid-b022421e-5823-4974-8ab5-be0ae0d50a7c" cx="86.44" cy="244.06" r="5.5"/>
      <circle class="uuid-b022421e-5823-4974-8ab5-be0ae0d50a7c" cx="118.44" cy="238.06" r="5.5"/>
      <circle class="uuid-521048c3-7542-4980-a692-9c9abff99ee1" cx="84.44" cy="242.06" r="1.5"/>
      <circle class="uuid-521048c3-7542-4980-a692-9c9abff99ee1" cx="116.94" cy="235.56" r="2"/>
    </g>
  </g>
</svg>