<?xml version="1.0" encoding="UTF-8"?>
<svg id="uuid-75222e24-4a31-45d1-a5d6-b4a83036281a" data-name="Layer 2" xmlns="http://www.w3.org/2000/svg" xmlns:xlink="http://www.w3.org/1999/xlink" viewBox="0 0 429 426">
  <defs>
    <style>
      .uuid-4deb656a-6f2c-4695-834e-43a11d69946c {
        fill: #bb120d;
      }

      .uuid-4deb656a-6f2c-4695-834e-43a11d69946c, .uuid-7772dd4e-b5a7-43a7-95e2-0a62c1f012aa, .uuid-1b682b12-7392-424d-b005-79ed71e42797, .uuid-1454a76a-492e-4df3-bfe5-bf9319301201, .uuid-c31e4cce-7875-41c9-9b31-11b417b6b4ed, .uuid-4f7a0904-b3e3-460e-8ffd-f393508e0204, .uuid-c976b458-a227-401c-991c-d3bbf606d1ab, .uuid-259f359b-f17a-48c8-81f1-87c704d6179e, .uuid-e3b71fd9-5ebd-43d6-a6f1-8c3ea920455e, .uuid-c39657fa-5807-4947-b9f7-5ceca555d827, .uuid-5fb83130-6538-46ee-9d60-2d3cc9b3879d, .uuid-f1568896-1e2e-4782-bc25-c1880928e4ba, .uuid-29140486-9262-451f-9e0e-a047ed3178ab, .uuid-af91948b-9e0f-4130-b1ae-354a32f6211a, .uuid-834255da-8b24-4401-bbfb-25f2b851b48b, .uuid-29571ca7-5006-4ef6-b52e-0e9e0b1469b0, .uuid-62ebc92a-3ea5-4092-8182-f9d3e9ec7437, .uuid-83da3b10-1214-453e-be67-fcaec98ad761, .uuid-00958fcc-3f63-48d7-bfd8-f1ec51088fdc {
        stroke-width: 0px;
      }

      .uuid-7772dd4e-b5a7-43a7-95e2-0a62c1f012aa {
        fill: none;
      }

      .uuid-1b682b12-7392-424d-b005-79ed71e42797 {
        fill: #f7f4fb;
      }

      .uuid-1454a76a-492e-4df3-bfe5-bf9319301201 {
        fill: #f2e6cf;
      }

      .uuid-c31e4cce-7875-41c9-9b31-11b417b6b4ed {
        fill: #f2ae7f;
      }

      .uuid-4f7a0904-b3e3-460e-8ffd-f393508e0204 {
        fill: #451918;
      }

      .uuid-c976b458-a227-401c-991c-d3bbf606d1ab {
        fill: #4a180d;
      }

      .uuid-259f359b-f17a-48c8-81f1-87c704d6179e {
        fill: #c6a9f8;
      }

      .uuid-e3b71fd9-5ebd-43d6-a6f1-8c3ea920455e {
        fill: #412726;
      }

      .uuid-c39657fa-5807-4947-b9f7-5ceca555d827 {
        fill: #ffc488;
      }

      .uuid-5fb83130-6538-46ee-9d60-2d3cc9b3879d {
        fill: #f39732;
      }

      .uuid-f1568896-1e2e-4782-bc25-c1880928e4ba {
        fill: #633e35;
      }

      .uuid-29140486-9262-451f-9e0e-a047ed3178ab {
        fill: #c38973;
      }

      .uuid-af91948b-9e0f-4130-b1ae-354a32f6211a {
        fill: #ffad1b;
      }

      .uuid-834255da-8b24-4401-bbfb-25f2b851b48b {
        fill: #fbbc87;
      }

      .uuid-cfb96486-09e9-4c55-961c-2943a7f3e259 {
        clip-path: url(#uuid-beeed12f-2dd6-4868-9090-dfdbc51c363c);
      }

      .uuid-29571ca7-5006-4ef6-b52e-0e9e0b1469b0 {
        fill: #f9aa4b;
      }

      .uuid-62ebc92a-3ea5-4092-8182-f9d3e9ec7437 {
        fill: #fccca4;
      }

      .uuid-83da3b10-1214-453e-be67-fcaec98ad761 {
        fill: #fdcb8c;
      }

      .uuid-00958fcc-3f63-48d7-bfd8-f1ec51088fdc {
        fill: #9b523f;
      }
    </style>
    <clipPath id="uuid-beeed12f-2dd6-4868-9090-dfdbc51c363c">
      <rect class="uuid-7772dd4e-b5a7-43a7-95e2-0a62c1f012aa" width="429" height="426" rx="97.34" ry="97.34"/>
    </clipPath>
  </defs>
  <g id="uuid-74264fca-083a-4288-b667-d31ed43111fe" data-name="Layer 10">
    <g class="uuid-cfb96486-09e9-4c55-961c-2943a7f3e259">
      <rect class="uuid-1454a76a-492e-4df3-bfe5-bf9319301201" x="1" y="-1" width="429" height="426" rx="97.34" ry="97.34"/>
      <polygon class="uuid-00958fcc-3f63-48d7-bfd8-f1ec51088fdc" points="316.7 446.83 231.7 444.83 281.7 248.83 332.7 248.83 316.7 446.83"/>
      <polygon class="uuid-83da3b10-1214-453e-be67-fcaec98ad761" points=".7 346.83 170.7 230.83 443.7 229.83 442.18 -4.27 .18 -4.27 .7 346.83"/>
      <polygon class="uuid-1b682b12-7392-424d-b005-79ed71e42797" points="243.7 -5.17 242.7 165.83 442.7 163.83 442.18 -4.27 243.7 -5.17"/>
      <polygon class="uuid-c31e4cce-7875-41c9-9b31-11b417b6b4ed" points="232.7 437.83 284.7 263.83 442.7 263.83 442.7 228.83 168.7 230.83 -1.3 342.83 .18 435.94 232.7 437.83"/>
      <polygon class="uuid-62ebc92a-3ea5-4092-8182-f9d3e9ec7437" points="443.7 239.83 287.7 242.83 290.7 348.83 290.7 360.83 441.7 361.83 443.7 239.83"/>
      <g>
        <path class="uuid-5fb83130-6538-46ee-9d60-2d3cc9b3879d" d="M262.65,372.04l48.05,13.78,53.27,20.13s-2.27,24.87-3.27,25.87-103,1-103,1c0,0,1.91-54.57,4.95-60.78"/>
        <g>
          <rect class="uuid-e3b71fd9-5ebd-43d6-a6f1-8c3ea920455e" x="185.7" y="251.83" width="27" height="8"/>
          <path class="uuid-4deb656a-6f2c-4695-834e-43a11d69946c" d="M63.9,253.12s21.8,25.7,58.8,24.7,55.29-6.81,60.64-17.91c0,0-99.23-2.5-119.44-6.8Z"/>
          <path class="uuid-e3b71fd9-5ebd-43d6-a6f1-8c3ea920455e" d="M187.7,252.83c0,1.97-.65,3.72-1.95,5.28-5.63,6.74-23.43,9.72-53.05,9.72s-58.18-6.68-68.8-14.7c-2.7-2.04-4.2-4.17-4.2-6.3,0-10.49,14.55-11,51-11s77,6.51,77,17Z"/>
          <path class="uuid-4f7a0904-b3e3-460e-8ffd-f393508e0204" d="M180.7,257.16c0,1.43-.57,2.7-1.69,3.83-4.89,4.89-20.32,7.05-46,7.05s-50.45-4.84-59.66-10.66c-2.34-1.48-3.65-3.02-3.65-4.57,0-7.61,12.62-7.98,44.23-7.98s66.77,4.72,66.77,12.33Z"/>
        </g>
        <path class="uuid-5fb83130-6538-46ee-9d60-2d3cc9b3879d" d="M355.54,302.21s-.84,5.62,1.16,6.62-8,10-8,10l-29,11-38-31,1-20,47.13,9.64,25.72,13.75h0"/>
        <path class="uuid-29571ca7-5006-4ef6-b52e-0e9e0b1469b0" d="M328.7,130.83l11,5s1,11-1,13-5,1-5,1l-4,11,28,10,19-16s-5-1-6-3-3.93-24.72-1.96-26.86,11.97-8.31,11.97-8.31l-28.01-1.82-24,16Z"/>
        <path class="uuid-c39657fa-5807-4947-b9f7-5ceca555d827" d="M334.7,53.83s-14,3-16,12-6,26-11,31,1,32,1,32c0,0,0,9,17,4s21-2,36-14l25-2,3-17-29-38-26-8Z"/>
        <path class="uuid-c976b458-a227-401c-991c-d3bbf606d1ab" d="M334.7,53.83s10,17,23,17l4,27s3,11,8,8,10-4,10-4c0,0,10,3,5,11s-16,10-16,10c0,0-3,13,4,11s22-8,26-19,7-12,7-12c0,0,13-19-5-34,0,0,12-22-5-25,0,0-12-5-12-9s-19-21-29,0c0,0-11-2-11,2s-30,18-20,22c0,0,7-6,11-5Z"/>
        <path class="uuid-259f359b-f17a-48c8-81f1-87c704d6179e" d="M335.7,148.83l-3,4,3,8,15,1s16-3,21-8c0,0,21,3,27,24s-3,57-3,57l-8,26,1,34s-32,11-38,6-82-46-82-46c0,0,16-41,19-49s14-16,16-20,13-26,13-28,10-4,10-4l9-5Z"/>
        <path class="uuid-29571ca7-5006-4ef6-b52e-0e9e0b1469b0" d="M382.7,225.83v9s-30,64-33,62c0,0-9,6-16,2,0,0-71-21-92-38,0,0-11-1-14,4s-33-5-33-5l14-10h-5l12-9,20-5s10-1,13,0,23,7,24,6l-4,13s46,14,50,14h14l18-39,32-4Z"/>
        <path class="uuid-259f359b-f17a-48c8-81f1-87c704d6179e" d="M357.7,308.83s32,30,10,98c0,0-9-3-18,5,0,0-4,4-5,2,0,0-24,17-53-11h-6v-16s-26-4-25-20c.93-14.9,18.34-67.95,20.73-75.18.1-.31.52-.35.69-.07,3.25,5.61,32.59,37.25,75.59,17.25Z"/>
      </g>
      <path class="uuid-af91948b-9e0f-4130-b1ae-354a32f6211a" d="M124.7,3.83c-9.28,12.37,10.88,42.17-28,48-20,3-38,8-30-3,9.1-12.51,54-12,59-17,8.94-8.94,11-44-1-28Z"/>
      <path class="uuid-29140486-9262-451f-9e0e-a047ed3178ab" d="M185.7,435.83H-27.3c-6.6,0-12-11.4-12-18l139-130c0-6.6,16.4-6,23-6l126,2c6.6,0,8,2.4,8,9l-59,131c-3,8-5.4,12-12,12Z"/>
      <g>
        <path class="uuid-834255da-8b24-4401-bbfb-25f2b851b48b" d="M221.84,310.43c0,7-8.51,11-19,11s-19-3-19-11,8.51-11,19-11,19,4,19,11Z"/>
        <ellipse class="uuid-f1568896-1e2e-4782-bc25-c1880928e4ba" cx="202.7" cy="306.33" rx="17" ry="5.5"/>
      </g>
      <g>
        <path class="uuid-834255da-8b24-4401-bbfb-25f2b851b48b" d="M147.7,306.83c0,7-8.51,11-19,11s-19-3-19-11,8.51-11,19-11,19,4,19,11Z"/>
        <ellipse class="uuid-f1568896-1e2e-4782-bc25-c1880928e4ba" cx="128.7" cy="302.33" rx="17" ry="5.5"/>
      </g>
      <g>
        <path class="uuid-834255da-8b24-4401-bbfb-25f2b851b48b" d="M197.7,381.33c0,7.95-11.83,12.5-26.43,12.5s-26.43-3.41-26.43-12.5,11.83-12.5,26.43-12.5,26.43,4.55,26.43,12.5Z"/>
        <ellipse class="uuid-f1568896-1e2e-4782-bc25-c1880928e4ba" cx="171.2" cy="376.83" rx="24.5" ry="9"/>
      </g>
    </g>
  </g>
</svg>