<?xml version="1.0" encoding="UTF-8"?>
<svg id="uuid-417d2926-266f-4697-a0c0-8f51cb5614c1" data-name="Layer 2" xmlns="http://www.w3.org/2000/svg" xmlns:xlink="http://www.w3.org/1999/xlink" viewBox="0 0 429 426">
  <defs>
    <style>
      .uuid-043cd9be-681a-4c3e-b3fe-bc6d8dba8ce2 {
        fill: #bb120d;
      }

      .uuid-043cd9be-681a-4c3e-b3fe-bc6d8dba8ce2, .uuid-b15dc878-0872-4a95-a407-0b173e1b3af0, .uuid-dca6ba61-5864-4efe-ab15-f6f0a6d6dc67, .uuid-d1b48e78-025a-45c2-920f-cc17b526a577, .uuid-a07c6bd1-4487-4b80-be16-3fa3415a5c5f, .uuid-262f614f-a100-46fb-afc5-d57e715b6495, .uuid-136d5ebc-af4a-489a-a9f9-bd1270f9acf8, .uuid-d9d2eeae-b3ad-424b-bd07-cca73cdf898a, .uuid-38021408-f4ee-422a-a9d6-1f600c8c3ac1, .uuid-70fdd4b2-7df4-4bd4-8113-46f147a85044, .uuid-a7b663e3-3536-4c97-b497-337a183e1d6c, .uuid-22ad170b-9d86-4921-aadc-1945bc842957, .uuid-c3a683e2-a379-4d20-92cf-1f69149a949d, .uuid-a41ca38e-8ffe-441e-ad40-531661e35bc3, .uuid-33e5ff29-871d-46d5-b5b2-68347f3526f1, .uuid-0895235b-24c0-4cf5-9518-21a7b11970b2, .uuid-f55e6c7f-b630-431a-a802-1680e601dfb7, .uuid-9f592ecf-9214-4c50-a093-4e4ffc191a5d, .uuid-5d5d9b3b-582c-445c-8af3-b25df08031e0 {
        stroke-width: 0px;
      }

      .uuid-b15dc878-0872-4a95-a407-0b173e1b3af0 {
        fill: none;
      }

      .uuid-dca6ba61-5864-4efe-ab15-f6f0a6d6dc67 {
        fill: #f7f4fb;
      }

      .uuid-d1b48e78-025a-45c2-920f-cc17b526a577 {
        fill: #aaa7ba;
      }

      .uuid-a07c6bd1-4487-4b80-be16-3fa3415a5c5f {
        fill: #f2e6cf;
      }

      .uuid-262f614f-a100-46fb-afc5-d57e715b6495 {
        fill: #f2ae7f;
      }

      .uuid-cb0631c0-0bba-4a25-9908-abc8743fef07 {
        clip-path: url(#uuid-9f8dd237-f148-4ccf-9273-2d9f57c5b38a);
      }

      .uuid-136d5ebc-af4a-489a-a9f9-bd1270f9acf8 {
        fill: #451918;
      }

      .uuid-d9d2eeae-b3ad-424b-bd07-cca73cdf898a {
        fill: #4a180d;
      }

      .uuid-38021408-f4ee-422a-a9d6-1f600c8c3ac1 {
        fill: #412726;
      }

      .uuid-70fdd4b2-7df4-4bd4-8113-46f147a85044 {
        fill: #ffc488;
      }

      .uuid-a7b663e3-3536-4c97-b497-337a183e1d6c {
        fill: #f39732;
      }

      .uuid-22ad170b-9d86-4921-aadc-1945bc842957 {
        fill: #633e35;
      }

      .uuid-c3a683e2-a379-4d20-92cf-1f69149a949d {
        fill: #c38973;
      }

      .uuid-a41ca38e-8ffe-441e-ad40-531661e35bc3 {
        fill: #ffad1b;
      }

      .uuid-33e5ff29-871d-46d5-b5b2-68347f3526f1 {
        fill: #fbbc87;
      }

      .uuid-0895235b-24c0-4cf5-9518-21a7b11970b2 {
        fill: #f9aa4b;
      }

      .uuid-f55e6c7f-b630-431a-a802-1680e601dfb7 {
        fill: #fccca4;
      }

      .uuid-9f592ecf-9214-4c50-a093-4e4ffc191a5d {
        fill: #fdcb8c;
      }

      .uuid-5d5d9b3b-582c-445c-8af3-b25df08031e0 {
        fill: #9b523f;
      }
    </style>
    <clipPath id="uuid-9f8dd237-f148-4ccf-9273-2d9f57c5b38a">
      <rect class="uuid-b15dc878-0872-4a95-a407-0b173e1b3af0" width="429" height="426" rx="97.34" ry="97.34"/>
    </clipPath>
  </defs>
  <g id="uuid-784863ff-178e-429f-a657-25a7fa384ab3" data-name="Layer 10">
    <g class="uuid-cb0631c0-0bba-4a25-9908-abc8743fef07">
      <rect class="uuid-a07c6bd1-4487-4b80-be16-3fa3415a5c5f" x="1" y="-1" width="429" height="426" rx="97.34" ry="97.34"/>
      <polygon class="uuid-5d5d9b3b-582c-445c-8af3-b25df08031e0" points="316.7 446.83 231.7 444.83 281.7 248.83 332.7 248.83 316.7 446.83"/>
      <polygon class="uuid-9f592ecf-9214-4c50-a093-4e4ffc191a5d" points=".7 346.83 170.7 230.83 443.7 229.83 442.18 -4.27 .18 -4.27 .7 346.83"/>
      <polygon class="uuid-dca6ba61-5864-4efe-ab15-f6f0a6d6dc67" points="243.7 -5.17 242.7 165.83 442.7 163.83 442.18 -4.27 243.7 -5.17"/>
      <polygon class="uuid-262f614f-a100-46fb-afc5-d57e715b6495" points="232.7 437.83 284.7 263.83 442.7 263.83 442.7 228.83 168.7 230.83 -1.3 342.83 .18 435.94 232.7 437.83"/>
      <polygon class="uuid-f55e6c7f-b630-431a-a802-1680e601dfb7" points="443.7 239.83 287.7 242.83 290.7 348.83 290.7 360.83 441.7 361.83 443.7 239.83"/>
      <g>
        <path class="uuid-a7b663e3-3536-4c97-b497-337a183e1d6c" d="M262.65,372.04l48.05,13.78,53.27,20.13s-2.27,24.87-3.27,25.87-103,1-103,1c0,0,1.91-54.57,4.95-60.78"/>
        <g>
          <rect class="uuid-38021408-f4ee-422a-a9d6-1f600c8c3ac1" x="185.7" y="251.83" width="27" height="8"/>
          <path class="uuid-043cd9be-681a-4c3e-b3fe-bc6d8dba8ce2" d="M63.9,253.12s21.8,25.7,58.8,24.7,55.29-6.81,60.64-17.91c0,0-99.23-2.5-119.44-6.8Z"/>
          <path class="uuid-38021408-f4ee-422a-a9d6-1f600c8c3ac1" d="M187.7,252.83c0,1.97-.65,3.72-1.95,5.28-5.63,6.74-23.43,9.72-53.05,9.72s-58.18-6.68-68.8-14.7c-2.7-2.04-4.2-4.17-4.2-6.3,0-10.49,14.55-11,51-11s77,6.51,77,17Z"/>
          <path class="uuid-136d5ebc-af4a-489a-a9f9-bd1270f9acf8" d="M180.7,257.16c0,1.43-.57,2.7-1.69,3.83-4.89,4.89-20.32,7.05-46,7.05s-50.45-4.84-59.66-10.66c-2.34-1.48-3.65-3.02-3.65-4.57,0-7.61,12.62-7.98,44.23-7.98s66.77,4.72,66.77,12.33Z"/>
        </g>
        <path class="uuid-a7b663e3-3536-4c97-b497-337a183e1d6c" d="M355.54,302.21s-.84,5.62,1.16,6.62-8,10-8,10l-29,11-38-31,1-20,47.13,9.64,25.72,13.75h0"/>
        <path class="uuid-0895235b-24c0-4cf5-9518-21a7b11970b2" d="M328.7,130.83l11,5s1,11-1,13-5,1-5,1l-4,11,28,10,19-16s-5-1-6-3-3.93-24.72-1.96-26.86,11.97-8.31,11.97-8.31l-28.01-1.82-24,16Z"/>
        <path class="uuid-70fdd4b2-7df4-4bd4-8113-46f147a85044" d="M334.7,53.83s-14,3-16,12-6,26-11,31,1,32,1,32c0,0,0,9,17,4s21-2,36-14l25-2,3-17-29-38-26-8Z"/>
        <path class="uuid-d9d2eeae-b3ad-424b-bd07-cca73cdf898a" d="M334.7,53.83s10,17,23,17l4,27s3,11,8,8,10-4,10-4c0,0,10,3,5,11s-16,10-16,10c0,0-3,13,4,11s22-8,26-19,7-12,7-12c0,0,13-19-5-34,0,0,12-22-5-25,0,0-12-5-12-9s-19-21-29,0c0,0-11-2-11,2s-30,18-20,22c0,0,7-6,11-5Z"/>
        <path class="uuid-d1b48e78-025a-45c2-920f-cc17b526a577" d="M335.7,148.83l-3,4,3,8,15,1s16-3,21-8c0,0,21,3,27,24s-3,57-3,57l-8,26,1,34s-32,11-38,6-82-46-82-46c0,0,16-41,19-49s14-16,16-20,13-26,13-28,10-4,10-4l9-5Z"/>
        <path class="uuid-0895235b-24c0-4cf5-9518-21a7b11970b2" d="M382.7,225.83v9s-30,64-33,62c0,0-9,6-16,2,0,0-71-21-92-38,0,0-11-1-14,4s-33-5-33-5l14-10h-5l12-9,20-5s10-1,13,0,23,7,24,6l-4,13s46,14,50,14h14l18-39,32-4Z"/>
        <path class="uuid-d1b48e78-025a-45c2-920f-cc17b526a577" d="M357.7,308.83s32,30,10,98c0,0-9-3-18,5,0,0-4,4-5,2,0,0-24,17-53-11h-6v-16s-26-4-25-20c.93-14.9,18.34-67.95,20.73-75.18.1-.31.52-.35.69-.07,3.25,5.61,32.59,37.25,75.59,17.25Z"/>
      </g>
      <path class="uuid-a41ca38e-8ffe-441e-ad40-531661e35bc3" d="M124.7,3.83c-9.28,12.37,10.88,42.17-28,48-20,3-38,8-30-3,9.1-12.51,54-12,59-17,8.94-8.94,11-44-1-28Z"/>
      <path class="uuid-c3a683e2-a379-4d20-92cf-1f69149a949d" d="M185.7,435.83H-27.3c-6.6,0-12-11.4-12-18l139-130c0-6.6,16.4-6,23-6l126,2c6.6,0,8,2.4,8,9l-59,131c-3,8-5.4,12-12,12Z"/>
      <g>
        <path class="uuid-33e5ff29-871d-46d5-b5b2-68347f3526f1" d="M221.84,310.43c0,7-8.51,11-19,11s-19-3-19-11,8.51-11,19-11,19,4,19,11Z"/>
        <ellipse class="uuid-22ad170b-9d86-4921-aadc-1945bc842957" cx="202.7" cy="306.33" rx="17" ry="5.5"/>
      </g>
      <g>
        <path class="uuid-33e5ff29-871d-46d5-b5b2-68347f3526f1" d="M147.7,306.83c0,7-8.51,11-19,11s-19-3-19-11,8.51-11,19-11,19,4,19,11Z"/>
        <ellipse class="uuid-22ad170b-9d86-4921-aadc-1945bc842957" cx="128.7" cy="302.33" rx="17" ry="5.5"/>
      </g>
      <g>
        <path class="uuid-33e5ff29-871d-46d5-b5b2-68347f3526f1" d="M197.7,381.33c0,7.95-11.83,12.5-26.43,12.5s-26.43-3.41-26.43-12.5,11.83-12.5,26.43-12.5,26.43,4.55,26.43,12.5Z"/>
        <ellipse class="uuid-22ad170b-9d86-4921-aadc-1945bc842957" cx="171.2" cy="376.83" rx="24.5" ry="9"/>
      </g>
    </g>
  </g>
</svg>