<?xml version="1.0" encoding="UTF-8"?>
<svg id="uuid-e264e8de-4ccf-4156-9cd2-1c56d7bfee53" data-name="Layer 2" xmlns="http://www.w3.org/2000/svg" xmlns:xlink="http://www.w3.org/1999/xlink" viewBox="0 0 429 426">
  <defs>
    <style>
      .uuid-23b64441-3f66-480d-a01d-c250fe488f06 {
        fill: #1f3e6a;
      }

      .uuid-23b64441-3f66-480d-a01d-c250fe488f06, .uuid-139b737f-92b1-4ac1-8c0f-9232d6fe6cb8, .uuid-bb5474b2-79be-4b4f-ba02-c1c04aad5f04, .uuid-686ef727-6da6-449a-96d2-f0a0b6db2685, .uuid-09f6be1a-9c23-4999-be4a-0a8743d4cc4a, .uuid-ba7c9f5b-bc96-40d2-a969-bd4e6a46e4f8, .uuid-339e405f-2238-45e5-b1c1-2cbc17bd5da7, .uuid-7dcde842-8c07-42cd-b353-2b50bdd5beef, .uuid-b4c59a70-c120-48e7-8ea2-819a45a1d9c2, .uuid-5370771d-bd12-450f-898b-862a8a900275, .uuid-54361294-e888-4762-a39a-f35dbc1b6e30, .uuid-681c5284-8bf9-41f5-904a-f8a1a0d673e3, .uuid-b6219644-8992-4e5c-a327-26756e95670a, .uuid-0d2e720e-9ef1-4f0d-bb6e-e11b13bf7085, .uuid-11e4d4ca-5bb2-4d63-a42e-5a0f8f59e421, .uuid-6b4ccc88-f9cc-4d61-8839-313dba76d94d, .uuid-cfe38842-0ecf-44c5-9ae7-cdeb1218d0b0, .uuid-cf295103-0e98-414a-81b2-c8ea21340d26, .uuid-319c54d8-71ea-41fd-8231-c84f83ee2dc0, .uuid-a39da62c-a101-4a69-bf63-6a55b05d4962 {
        stroke-width: 0px;
      }

      .uuid-139b737f-92b1-4ac1-8c0f-9232d6fe6cb8 {
        fill: #c35b50;
      }

      .uuid-bb5474b2-79be-4b4f-ba02-c1c04aad5f04 {
        fill: #fbc57d;
      }

      .uuid-686ef727-6da6-449a-96d2-f0a0b6db2685, .uuid-45203411-4dab-4de8-a9d6-120ad463a904, .uuid-ecd6c2f9-aa4d-4387-954d-690c7c1fa851, .uuid-1bba04ca-4f51-458e-a1bf-74fd0092376b {
        fill: none;
      }

      .uuid-45203411-4dab-4de8-a9d6-120ad463a904 {
        stroke-width: 3.94px;
      }

      .uuid-45203411-4dab-4de8-a9d6-120ad463a904, .uuid-ecd6c2f9-aa4d-4387-954d-690c7c1fa851, .uuid-1bba04ca-4f51-458e-a1bf-74fd0092376b {
        stroke: #391a17;
        stroke-miterlimit: 10;
      }

      .uuid-ecd6c2f9-aa4d-4387-954d-690c7c1fa851 {
        stroke-width: 4.07px;
      }

      .uuid-09f6be1a-9c23-4999-be4a-0a8743d4cc4a {
        fill: #391a17;
      }

      .uuid-ba7c9f5b-bc96-40d2-a969-bd4e6a46e4f8 {
        fill: #2c1a0c;
      }

      .uuid-1bba04ca-4f51-458e-a1bf-74fd0092376b {
        stroke-width: 4px;
      }

      .uuid-339e405f-2238-45e5-b1c1-2cbc17bd5da7 {
        fill: #773508;
      }

      .uuid-7dcde842-8c07-42cd-b353-2b50bdd5beef {
        fill: #293a68;
      }

      .uuid-b4c59a70-c120-48e7-8ea2-819a45a1d9c2 {
        fill: #0f0909;
      }

      .uuid-5370771d-bd12-450f-898b-862a8a900275 {
        fill: #3b5e84;
      }

      .uuid-54361294-e888-4762-a39a-f35dbc1b6e30 {
        fill: #2d0900;
      }

      .uuid-681c5284-8bf9-41f5-904a-f8a1a0d673e3 {
        fill: #3a0201;
      }

      .uuid-b6219644-8992-4e5c-a327-26756e95670a {
        fill: #bb8338;
      }

      .uuid-0d2e720e-9ef1-4f0d-bb6e-e11b13bf7085 {
        fill: #631201;
      }

      .uuid-11e4d4ca-5bb2-4d63-a42e-5a0f8f59e421 {
        fill: #f7b76b;
      }

      .uuid-6b4ccc88-f9cc-4d61-8839-313dba76d94d {
        fill: #f5f3e7;
      }

      .uuid-cfe38842-0ecf-44c5-9ae7-cdeb1218d0b0 {
        fill: #d4b5b0;
      }

      .uuid-cf295103-0e98-414a-81b2-c8ea21340d26 {
        fill: #d17b5a;
      }

      .uuid-726b58df-55d1-4199-a5b1-86ea9e10df5d {
        clip-path: url(#uuid-e4f424dc-19d0-48e8-93fc-a8d46baa89c2);
      }

      .uuid-319c54d8-71ea-41fd-8231-c84f83ee2dc0 {
        fill: #421c03;
      }

      .uuid-a39da62c-a101-4a69-bf63-6a55b05d4962 {
        fill: #3f2b20;
      }
    </style>
    <clipPath id="uuid-e4f424dc-19d0-48e8-93fc-a8d46baa89c2">
      <rect class="uuid-686ef727-6da6-449a-96d2-f0a0b6db2685" width="429" height="426" rx="97.34" ry="97.34"/>
    </clipPath>
  </defs>
  <g id="uuid-0ccc87ff-4f46-46f1-b9f9-f119ed972076" data-name="Layer 8">
    <g class="uuid-726b58df-55d1-4199-a5b1-86ea9e10df5d">
      <rect class="uuid-7dcde842-8c07-42cd-b353-2b50bdd5beef" x="1" y="-1" width="429" height="426" rx="97.34" ry="97.34"/>
      <circle class="uuid-23b64441-3f66-480d-a01d-c250fe488f06" cx="262.17" cy="144.5" r="125.5"/>
      <circle class="uuid-5370771d-bd12-450f-898b-862a8a900275" cx="296.17" cy="106.5" r="86.5"/>
      <polygon class="uuid-681c5284-8bf9-41f5-904a-f8a1a0d673e3" points="-6.33 3 -5.33 369 56.67 369 60.67 3 -6.33 3"/>
      <path class="uuid-6b4ccc88-f9cc-4d61-8839-313dba76d94d" d="M275.38,136.35s18.06,25.98,51.93,13.24c27.68-10.41,27.82-37.69,26.94-47.31-.2-2.19-.7-4.34-1.51-6.39-3.79-9.58-17.99-38.6-48.69-30.92,0,0,29.27,5.98,28.19,42.87-1.08,36.89-49.85,36.4-56.86,28.51Z"/>
      <polygon class="uuid-681c5284-8bf9-41f5-904a-f8a1a0d673e3" points="365.67 3 366.67 369 428.67 369 432.67 3 365.67 3"/>
      <polyline class="uuid-0d2e720e-9ef1-4f0d-bb6e-e11b13bf7085" points="-.33 362 430.67 367.17 432.67 438 1.67 438 -.33 362"/>
      <g>
        <polygon class="uuid-bb5474b2-79be-4b4f-ba02-c1c04aad5f04" points="176.67 216 187.67 216 197.67 210 211.67 212 219.67 219 219.8 221.99 174.35 222.66 176.67 216"/>
        <g>
          <path class="uuid-bb5474b2-79be-4b4f-ba02-c1c04aad5f04" d="M170.67,350s-8,20-11,20,12,10,12,10l20,4-.86-5.82s-11.14-6.18-11.14-7.18-2.33-11.55-1.17-13.77-7.83-7.23-7.83-7.23Z"/>
          <path class="uuid-09f6be1a-9c23-4999-be4a-0a8743d4cc4a" d="M158.67,371s-3,7-2,8,9,9,12,7,5-2,5-2c0,0,9.7,12.62,34.85,1.52.38-.17.76-.34,1.15-.52,0,0,2-4,2-6s-18.71,2.68-24.46-3.35c-.19-.2-.37-.42-.54-.65l-1,2,4,4s-25-2-31-10Z"/>
        </g>
        <path class="uuid-09f6be1a-9c23-4999-be4a-0a8743d4cc4a" d="M168.86,326.3l-6.19,11.7s5,23,24,20l14-36-31.81,4.3Z"/>
        <path class="uuid-09f6be1a-9c23-4999-be4a-0a8743d4cc4a" d="M94.98,254.53s-2.41,25.41,10.14,24.94,8.55-16.47,8.55-16.47l-7-10-11.69,1.53Z"/>
        <g>
          <path class="uuid-bb5474b2-79be-4b4f-ba02-c1c04aad5f04" d="M224.2,336.34s-8,20-11,20,12,10,12,10l20,4-.86-5.82s-11.14-6.18-11.14-7.18-2.33-11.55-1.17-13.77-7.83-7.23-7.83-7.23Z"/>
          <path class="uuid-09f6be1a-9c23-4999-be4a-0a8743d4cc4a" d="M212.2,357.34s-3,7-2,8,9,9,12,7,5-2,5-2c0,0,9.7,12.62,34.85,1.52.38-.17.76-.34,1.15-.52,0,0,2-4,2-6s-18.71,2.68-24.46-3.35c-.19-.2-.37-.42-.54-.65l-1,2,4,4s-25-2-31-10Z"/>
        </g>
        <path class="uuid-54361294-e888-4762-a39a-f35dbc1b6e30" d="M199.46,326.58l-.78,26.42-13,21s25,14,43,2l-13.48-21.93.22-35.25-15.96,7.76Z"/>
        <path class="uuid-11e4d4ca-5bb2-4d63-a42e-5a0f8f59e421" d="M146.67,119v15s7,6,1,9l-1,10c-5,8-13,4-13,4,0,0,1,8-4,8v11l-6,2-23-19s13-9,13-15c0,0-5.12-7.37-3.06-11.18s14.06-14.82,14.06-14.82l22,1Z"/>
        <path class="uuid-ba7c9f5b-bc96-40d2-a969-bd4e6a46e4f8" d="M106.67,256s-12,0-14-2-21-58-18-63,5-16,13-17l13-15s18,10,24,18c0,0,2,1,4-4s1-7,1-7c0,0,13,7,13,9s13,16,13,16l2.33,32.27-51.33,32.73Z"/>
        <path class="uuid-b4c59a70-c120-48e7-8ea2-819a45a1d9c2" d="M130.67,167s17,5,18,17c0,0,4,10,5,9s-9-19-9-19c0,0-2-4-1-5s10-4,10-4c0,0,27,34,28,42s0,9,0,9h-5l-37-4s3-21,2-23l-11-22Z"/>
        <path class="uuid-a39da62c-a101-4a69-bf63-6a55b05d4962" d="M98.67,176l4,11s21,16,23,20,52,7,52,7c0,0-2.44,7.54-.22,8.77l-65.18,1.16-23.6-15.93s-12-22-9-26,13-12,19-6Z"/>
        <g>
          <g>
            <line class="uuid-ecd6c2f9-aa4d-4387-954d-690c7c1fa851" x1="76.5" y1="301.9" x2="79.7" y2="391.18"/>
            <line class="uuid-ecd6c2f9-aa4d-4387-954d-690c7c1fa851" x1="98.5" y1="298.9" x2="101.7" y2="388.18"/>
            <line class="uuid-ecd6c2f9-aa4d-4387-954d-690c7c1fa851" x1="120.5" y1="299.9" x2="123.7" y2="389.18"/>
            <line class="uuid-ecd6c2f9-aa4d-4387-954d-690c7c1fa851" x1="147.5" y1="299.9" x2="150.7" y2="389.18"/>
          </g>
          <path class="uuid-b6219644-8992-4e5c-a327-26756e95670a" d="M75.36,290.72s-5.69-27.72-9.69-32.72,7.55-28.42,20.77-20.71,13.08,17.29,13.08,17.29l11.15,20.42-.95,16.38-34.36-.67Z"/>
          <polyline class="uuid-09f6be1a-9c23-4999-be4a-0a8743d4cc4a" points="71.67 290 130.67 292 130.67 305 71.67 306 71.67 291"/>
        </g>
        <g>
          <g>
            <line class="uuid-1bba04ca-4f51-458e-a1bf-74fd0092376b" x1="353.48" y1="288.61" x2="356.67" y2="375"/>
            <line class="uuid-45203411-4dab-4de8-a9d6-120ad463a904" x1="330.5" y1="289.35" x2="333.7" y2="373"/>
            <line class="uuid-ecd6c2f9-aa4d-4387-954d-690c7c1fa851" x1="311.5" y1="289.72" x2="314.7" y2="379"/>
            <line class="uuid-ecd6c2f9-aa4d-4387-954d-690c7c1fa851" x1="284.5" y1="284.9" x2="287.7" y2="374.18"/>
          </g>
          <path class="uuid-b6219644-8992-4e5c-a327-26756e95670a" d="M360.67,270s-2.42,7.28-.21,7.64-56.53,1.11-56.53,1.11l-12.26-10.75,41-25s2-17,16-15,16,8,16,18-4,24-4,24Z"/>
          <polygon class="uuid-09f6be1a-9c23-4999-be4a-0a8743d4cc4a" points="296.67 278 362.67 278 367.67 289 299.67 291 296.67 278"/>
        </g>
        <path class="uuid-cf295103-0e98-414a-81b2-c8ea21340d26" d="M105.67,227v92s19-6,37-2v5s9-1,38,7c0,0,8,3,25-4s35-5,35-5l46-11,4-84s-3-4-9-4-167,3-167,3c0,0-5,0-9,3Z"/>
        <path class="uuid-cfe38842-0ecf-44c5-9ae7-cdeb1218d0b0" d="M243.67,344.37v14.63h-3s1-11-1-10-3-2-10,12c0,0-16,8-27-2,0,0-1.61-3.94,11.14-7.51,1.9-.53,3.52-1.79,4.49-3.5l3.37-5.99h19.63c1.31,0,2.37,1.06,2.37,2.37Z"/>
        <path class="uuid-bb5474b2-79be-4b4f-ba02-c1c04aad5f04" d="M220.67,342s-.91,9.07-7.04,10.8c-.73.21-.85,1.23-.16,1.54.96.43,2.98.59,7.19-.34,9-2,12-10,12-10,0,0-10-1-12-2Z"/>
        <g>
          <path class="uuid-bb5474b2-79be-4b4f-ba02-c1c04aad5f04" d="M260.67,341l12,16v19s-6,13,4,1c0,0,8-14,8-19,0,0-1-3-3-3s-3-12-3-12l-18-2Z"/>
          <path class="uuid-cfe38842-0ecf-44c5-9ae7-cdeb1218d0b0" d="M270.67,352s7,2,9-2l1,4s-6,4-8,3-2-5-2-5Z"/>
          <path class="uuid-cfe38842-0ecf-44c5-9ae7-cdeb1218d0b0" d="M270.67,378l13-22s5-2,8,5,4,9,4,9l-6-6s-3,7-4,7v11s-8,11-19,7c0,0-5-2,4-11Z"/>
          <path class="uuid-bb5474b2-79be-4b4f-ba02-c1c04aad5f04" d="M272.67,360v16s-6,13,4,1c0,0,8-14,8-19,0,0-1-3-3-3"/>
        </g>
        <path class="uuid-11e4d4ca-5bb2-4d63-a42e-5a0f8f59e421" d="M252.67,111l21,6,16,27,15,36,6,21-23,3-17-1,1-5-4-16s-1-13,3-16c0,0-4-6-4-8s-14-5-16-3-8-9-6-13c0,0-3-2-1-4s5-4,5-4l-1-18,5-5Z"/>
        <path class="uuid-139b737f-92b1-4ac1-8c0f-9232d6fe6cb8" d="M300.67,224s-2,1-1,3,0,5,0,5l-70,24-20,83s17,9,32,4l2-4,16,3s23,5,27,1,1-1,1-1c0,0,10.04-5.04,24-17s19-7,19-7c0,0-24-45-35-46h17s21,2,25-2c0,0,4-6,4-7s1-8-5-10l1-11-4-3s-8-24-17-25-5-7-5-7l-8-9-19-2-7,7s8,12,16,14l1,3h2l4,4Z"/>
        <path class="uuid-339e405f-2238-45e5-b1c1-2cbc17bd5da7" d="M249.67,128s-19-11,1-23c0,0,4-2,8,3s20,6,20,6c0,0,17-4,14,18s14,33,14,33l20,9s8-4,18,10-2,39-7,40-22,1-24-8-10-18-10-18c0,0-7-16-6-19s-3-18-12-18-8-15-8-15c0,0,1-11-2-11s-11,3-11,3c0,0-13-12-5-24,0,0-10,0-10,14Z"/>
        <path class="uuid-bb5474b2-79be-4b4f-ba02-c1c04aad5f04" d="M299.67,197l-7-13-7-1-21,26-17.11,12.38s-12.89,4.62-11.89-11.38,5-23,5-23c0,0,10-14,11-22s3-11,2-14c0,0,5,0,7-2s6-9,6-9c0,0,3-2,3-1s-1,8-2,9,7-7,8-9,1.71-.86,1.71-.86c0,0,1.29,6.86-.71,9.86s-11,11-14,11c0,0-8,31-6,33,0,0,9-11,9-11s6-24,16-20,12,10,12,10l4.55,12.92,5.45,14.08-4-1Z"/>
        <polygon class="uuid-bb5474b2-79be-4b4f-ba02-c1c04aad5f04" points="144.67 168 138.67 163 138.67 157 147.52 144.46 151.67 143 152.67 139 154.67 139 156.67 148 156.67 154 153.67 159 153.67 165 144.67 168"/>
        <path class="uuid-319c54d8-71ea-41fd-8231-c84f83ee2dc0" d="M123.67,122v15s-3,2-4,0-2-13-8-1c0,0-7-9-5-13s13-17,23-14c0,0,17-6,20,6s-26,7-26,7Z"/>
      </g>
    </g>
  </g>
</svg>