<?xml version="1.0" encoding="UTF-8"?>
<svg id="uuid-13a04117-c931-4b44-b538-5ca98177b894" data-name="Layer 2" xmlns="http://www.w3.org/2000/svg" xmlns:xlink="http://www.w3.org/1999/xlink" viewBox="0 0 429 426">
  <defs>
    <style>
      .uuid-62372dba-76a7-47dc-a199-a00d640a0021 {
        fill: #32527b;
      }

      .uuid-62372dba-76a7-47dc-a199-a00d640a0021, .uuid-8eb9e605-41d9-4f68-8297-987a2239ef0e, .uuid-21ffaae2-8d1c-405f-8946-1579855051a4, .uuid-2862b634-8ce5-4905-9652-2067ca09b625, .uuid-d9ead6dd-8808-4a38-a69d-3b306986c43d, .uuid-5a12caea-d133-43c3-a87a-710caa6c7f21, .uuid-07ce02c0-6f97-44f5-93d3-65801ff66310, .uuid-4bee441b-c817-484d-ad38-4bad36cab4ee, .uuid-93bbd769-858c-4729-ad59-016d6c11cda6, .uuid-c6c3ea57-69e0-4591-b0f8-ab92be0ed525 {
        stroke-width: 0px;
      }

      .uuid-8eb9e605-41d9-4f68-8297-987a2239ef0e {
        fill: #1f3e6a;
      }

      .uuid-21ffaae2-8d1c-405f-8946-1579855051a4 {
        fill: #3d567e;
      }

      .uuid-2862b634-8ce5-4905-9652-2067ca09b625 {
        fill: none;
      }

      .uuid-0d3b8f36-d900-4cd7-91a4-84be305c5334 {
        clip-path: url(#uuid-1d2e5a20-9a23-43ad-8f78-fed0cb43836c);
      }

      .uuid-d9ead6dd-8808-4a38-a69d-3b306986c43d {
        fill: #293a68;
      }

      .uuid-5a12caea-d133-43c3-a87a-710caa6c7f21 {
        fill: #3b5e84;
      }

      .uuid-07ce02c0-6f97-44f5-93d3-65801ff66310 {
        fill: #f5f3e7;
      }

      .uuid-4bee441b-c817-484d-ad38-4bad36cab4ee {
        fill: #492e59;
      }

      .uuid-93bbd769-858c-4729-ad59-016d6c11cda6 {
        fill: #432557;
      }

      .uuid-c6c3ea57-69e0-4591-b0f8-ab92be0ed525 {
        fill: #4c869e;
      }
    </style>
    <clipPath id="uuid-1d2e5a20-9a23-43ad-8f78-fed0cb43836c">
      <rect class="uuid-2862b634-8ce5-4905-9652-2067ca09b625" width="429" height="426" rx="97.34" ry="97.34"/>
    </clipPath>
  </defs>
  <g id="uuid-249da49c-a26c-4bb6-a93e-ea226d948aa6" data-name="Layer 4">
    <g class="uuid-0d3b8f36-d900-4cd7-91a4-84be305c5334">
      <rect class="uuid-d9ead6dd-8808-4a38-a69d-3b306986c43d" x="1" y="-1" width="429" height="426" rx="97.34" ry="97.34"/>
      <circle class="uuid-8eb9e605-41d9-4f68-8297-987a2239ef0e" cx="319.18" cy="127.47" r="125.5"/>
      <circle class="uuid-5a12caea-d133-43c3-a87a-710caa6c7f21" cx="351.18" cy="111.47" r="86.5"/>
      <path class="uuid-07ce02c0-6f97-44f5-93d3-65801ff66310" d="M330.39,141.32s18.06,25.98,51.93,13.24c27.68-10.41,27.82-37.69,26.94-47.31-.2-2.19-.7-4.34-1.51-6.39-3.79-9.58-17.99-38.6-48.69-30.92,0,0,29.27,5.98,28.19,42.87-1.08,36.89-49.85,36.4-56.86,28.51Z"/>
      <path class="uuid-62372dba-76a7-47dc-a199-a00d640a0021" d="M1,170s171-3,243,38c0,0,142-53,185-30l3,250-429-1L1,170Z"/>
      <path class="uuid-c6c3ea57-69e0-4591-b0f8-ab92be0ed525" d="M1,220s171.78-39,250.03-2c0,0,141.26-32,181.91-16l4.06,226L-1,430,1,220Z"/>
      <path class="uuid-21ffaae2-8d1c-405f-8946-1579855051a4" d="M1,255s257-65,426-7l5,177-443,3L1,255Z"/>
      <path class="uuid-4bee441b-c817-484d-ad38-4bad36cab4ee" d="M-1,304s87-71,160-7c0,0,13-44,37-44,0,0,31-18,64,13,0,0,10-49,93-52s100,69,100,69l-13,145L-7,453-1,304Z"/>
      <path class="uuid-93bbd769-858c-4729-ad59-016d6c11cda6" d="M2,354s102-39,153-1c0,0,37-54,93-28,0,0,32-62,107-30,0,0,52,13,30,72,0,0,23-25,39-18l2,81-421-1-3-75Z"/>
    </g>
  </g>
</svg>