<?xml version="1.0" encoding="UTF-8"?>
<svg id="Layer_2" data-name="Layer 2" xmlns="http://www.w3.org/2000/svg" xmlns:xlink="http://www.w3.org/1999/xlink" viewBox="0 0 2192 1374">
  <defs>
    <style>
    </style>
    <image id="image" width="4000" height="4000" xlink:href="../../../../Documents/MMP/Digezz/Untitled_Artwork 7.png"/>
    <image id="image-2" width="4000" height="4000" xlink:href="../../../../Documents/MMP/Digezz/Untitled_Artwork 6.png"/>
    <image id="image-3" width="4000" height="4000" xlink:href="../../../../Documents/MMP/Digezz/Untitled_Artwork 8.png"/>
  </defs>
  <g id="Layer_1-2" data-name="Layer 1">
    <use transform="translate(1503 1123) scale(.03)" xlink:href="#image-2"/>
    <use transform="translate(267 504) scale(.03)" xlink:href="#image"/>
    <use transform="translate(108) scale(.08)" xlink:href="#image-3"/>
    <image width="1024" height="1024" transform="translate(0 655) scale(.41)" xlink:href="../../../../Documents/MMP/Digezz/Untitled_Artwork 9.png"/>
    <image width="4000" height="4000" transform="translate(1748 923) scale(.07)" xlink:href="../../../../Documents/MMP/Digezz/Untitled_Artwork 10.png"/>
    <image width="4000" height="4000" transform="translate(1100 140) scale(.09)" xlink:href="../../../../Documents/MMP/Digezz/Untitled_Artwork 11.png"/>
    <image width="4000" height="4000" transform="translate(598 780) scale(.13)" xlink:href="../../../../Documents/MMP/Digezz/Untitled_Artwork 12.png"/>
    <image width="4000" height="4000" transform="translate(312 62) scale(.11)" xlink:href="../../../../Documents/MMP/Digezz/Untitled_Artwork 13.png"/>
    <image width="4000" height="4000" transform="translate(1639 147) scale(.11)" xlink:href="../../../../Documents/MMP/Digezz/Untitled_Artwork 14.png"/>
    <use transform="translate(1855 606) scale(.08)" xlink:href="#image-3"/>
    <use transform="translate(280 1037) scale(.08)" xlink:href="#image-3"/>
    <use transform="translate(1120 894) scale(.03)" xlink:href="#image-2"/>
    <use transform="translate(1120 894) scale(.03)" xlink:href="#image-2"/>
    <use transform="translate(1120 894) scale(.03)" xlink:href="#image-2"/>
    <use transform="translate(1120 894) scale(.03)" xlink:href="#image-2"/>
    <use transform="translate(1120 894) scale(.03)" xlink:href="#image-2"/>
    <use transform="translate(1217 967) scale(.03)" xlink:href="#image"/>
    <use transform="translate(267 504) scale(.03)" xlink:href="#image"/>
    <use transform="translate(973.77 176.95) rotate(-16.19) scale(.03)" xlink:href="#image"/>
    <use transform="translate(1542.31 167.28) rotate(-16.19) scale(.03)" xlink:href="#image"/>
    <use transform="translate(730.7 190) rotate(11.07) scale(.08)" xlink:href="#image-3"/>
  </g>
</svg>